<?xml version="1.0" encoding="utf-8"?>
<!-- Generator: Adobe Illustrator 26.4.1, SVG Export Plug-In . SVG Version: 6.00 Build 0)  -->
<svg version="1.1" id="svg" xmlns="http://www.w3.org/2000/svg" xmlns:xlink="http://www.w3.org/1999/xlink" x="0px" y="0px"
	 viewBox="0 0 600 600" style="enable-background:new 0 0 600 600;" xml:space="preserve">
<style type="text/css">
	.st0{fill:#6314AD;}
</style>
<path class="st0" d="M521.7,384.5c-0.3,0.8-0.7,1.6-1,2.4c-15.7,36.7-41.8,68.7-76.2,89.3c-4.3,2.7-6.2,5.1-8.7,9.4
	c-2.1,1.3-2.1,1.3-4.4,2.1c-5,2-9.3,4.4-13.9,7.3c-14.4,8.6-28.5,12.3-45.1,11.9c0.3-2.2,0.3-2.2,1.1-4.6c4.1-2.1,4.1-2.1,8-3.5
	c0-0.8,0-1.5,0-2.3c-2.3-0.3-4.6-0.8-6.9-1.1c0.1-2.2,0.1-2.2,1.1-4.6c2.9-1.5,2.9-1.5,6.7-2.8c12.6-4.6,23.7-10.8,34.7-18.2
	c-0.6,0.3-1.1,0.6-1.7,0.9c-25.9,13.3-59.1,23.3-88.6,16c-3.2-1-6-2.1-9.1-3.5c-0.3-1.9-0.9-3.9-1.2-5.7c7.4-5.4,14.6-5.9,23.5-6.7
	c26.4-2.6,47.1-11.6,67.5-28.7c0.7-0.6,1.3-1,2-1.6c4.4-3.8,8.7-7.4,13-11.2c1.5-1.3,1.5-1.3,3.1-2.7c28.6-25.4,46.3-57.3,48.6-95.8
	c0.7-22.1-2.7-46.2-10-67.1c-0.5-1.4-0.9-2.7-1.5-4.2c-6.8-18-17-33.6-30.1-47.7c-0.9-0.8-1.6-1.7-2.5-2.7
	c-9.6-10-21.1-17.2-32.9-24.3c-0.9-0.6-2-1.3-3-1.8c-5.6-3.3-9.8-5.2-16.3-5.6c-0.3,0.8-0.8,1.5-1.1,2.3c-5.5-0.7-9.8-2.1-14.8-4.3
	c-33.8-13.6-71.2-15.7-105.4-1.8c-6.8,3.1-13.1,6.8-19.6,10.5c-1.6,0.9-1.6,0.9-3.3,2c-34.1,19.8-34.1,19.8-59.4,49.3
	c-1.5,2.3-3,4.5-4.5,6.8c-14,20.8-32.3,48.2-28.8,74.4c0.3,1.1,0.9,2.2,1.2,3.3c2.5,8,1.4,17.2,1.2,25.5c0,12.6,1.1,24.1,5.8,35.9
	c0.3,0.8,0.6,1.6,0.9,2.4c14.2,35,45.2,60.3,76.2,80.3c1.2,0.8,2.3,1.7,3.6,2.5c3.3,2,4.3,2.5,8,2.2c7.5,0.5,13.5,4.9,19.9,8.6
	c18.3,10.9,38.2,18.7,58.6,24.5c2.6,0.8,2.6,0.8,4.9,2c0,1.2,0,2.3,0,3.5c-30.3,10.4-71.6-9-98.4-21.3c19,11.2,39.5,20.2,61.4,23.9
	c0,1.2,0,2.3,0,3.5c-34.2,1.6-71.3-14.5-98.5-34c-0.7-0.4-1.3-0.9-2-1.4c-15.1-10.8-28.6-23-39.9-37.7c-1.6-2-3.2-4-4.8-6
	c-1.2-1.5-2.3-2.9-3.4-4.4c4.7,7.8,9.8,14.8,16.1,21.5c2.2,2.3,4.2,4.7,6.3,7.1c13,14.7,30.1,26.2,47.7,35c3.3,1.7,3.3,1.7,5.6,3.3
	c7.8,4.9,15.7,7.9,24.3,10.6c1.4,0.4,2.7,0.9,4.2,1.4c13.1,4.1,26.1,7.8,39.7,9.2c0,1.2,0,2.3,0,3.5c-47.6,1.1-92.8-9.3-128.6-43
	c-1.2-1-1.2-1-2.5-2.1c-35.5-32.9-55.9-91.5-62.1-138.4c-0.1-1.4-0.1-1.4-0.3-2.7c-0.9-7.7-1.1-15.5-1.1-23.4c0-1.3,0-2.4,0-3.7
	c-0.1-18.5-0.1-18.5,2.2-23.4c1.2,0,2.3,0,3.5,0c0.1,1.1,0.3,2.3,0.3,3.4c1.1,11.1,2.9,22.1,5,32.9c0.3,1.3,0.5,2.6,0.7,3.9
	c1.5,7.2,3.3,13.9,5.8,20.9c-0.3-0.9-0.5-2-0.6-2.9c-0.9-3.6-1.5-7.3-2.4-10.9c-0.3-1.6-0.7-3.1-1.1-4.7
	c-5.7-26.4-6.3-51.3,1.1-77.4c-1.7,3.6-3.3,7.1-5,10.7c-0.4,1-0.9,2-1.4,3c-0.4,0.9-0.9,2-1.4,2.9c-0.4,0.9-0.8,1.7-1.3,2.7
	c-1.3,2.8-2.4,5.6-3.5,8.5c-1.2-0.3-2.3-0.8-3.5-1.1c4.5-45.4,29.4-87.7,61.4-119.2c5.1-5.1,9.1-10.3,12.8-16.5
	C117.2,170.1,92.2,218.6,84,267c-6.2,39.7-3.2,78.3,1.3,118c0.3,2,0.3,3.9,0.6,5.9c0.1,1.5,0.1,1.5,0.3,3.1c0.1,0.9,0.1,1.9,0.3,2.7
	c0.6,4.5,2.2,8.7,3.9,13c1.5,4.3,2.9,8.6,4.4,12.9c0.3,1.1,0.7,2.2,1.2,3.3c1.8,5.6,3.3,10.2,2.7,16.1c-3.5-1.1-3.5-1.1-4.5-3
	c-0.3-0.8-0.6-1.6-0.9-2.4c-0.5-1.3-0.5-1.3-1-2.7c-0.3-0.9-0.7-1.9-1-2.9c-0.7-2-1.5-3.8-2.2-5.7c-0.3-0.9-0.7-1.9-1-2.7
	c-1-2.7-2.1-5.4-3.2-8.2c-0.5-1.3-0.5-1.3-1-2.7c-1.2-2.7-2.3-5.3-3.5-8c-12-26.7-18.6-55.8-17-85.1c0-0.9,0.1-1.7,0.1-2.7
	C66,261.4,88.5,195.2,129,156.1c9.3-8.1,19.4-15.2,29.4-22.4c5.3-3.8,10.4-7.7,15.3-11.8c25.2-20.5,56.7-34.9,88.8-40.4
	c2.1-0.3,2.1-0.3,4.2-0.7c63.2-10.1,127.4,9.7,178.3,46.3c6.4,4.8,12.3,9.8,18.1,15.4c0.7,0.6,1.3,1.1,2,1.8
	C529.4,203.8,556.9,302.2,521.7,384.5z M511.5,244.7c-0.7-2.1-0.7-2.1-1.3-4.3c-2.6-8-5.6-15.7-9-23.3c-0.3-0.8-0.7-1.6-1-2.4
	c-1.6-4.3-1.6-4.3-5.1-6.9c0.9,4.9,2.5,9,4.4,13.5c9.2,22.2,13.6,45.4,13.9,69.4c0,1.5,0,1.5,0,3c-0.1,17.7-3,35-6.7,52.2
	c-0.3,0.9-0.4,1.9-0.6,2.9c-4.4,20.3-10.3,38.6-18.7,57.4c-0.7,1.6-0.7,1.6-1.5,3.3c-0.4,0.9-0.9,2-1.4,2.9
	c-0.3,0.8-0.6,1.6-0.8,2.4c0.6,1.1,0.6,1.1,1.2,2.3c18.2-27.4,30.5-57.5,34.1-90.4c0.1-0.8,0.3-1.5,0.3-2.3
	C522.4,297.9,519.6,270,511.5,244.7z M495.1,205.5c-6.3-15.7-18.8-30.5-30.5-42.5c-2.2-2.3-2.2-2.3-3.4-4.6c-0.8,0-1.5,0-2.3,0
	c-0.3-0.7-0.6-1.3-0.9-2c-16.2-27.9-64.9-48.3-94.5-56.6c-4.5-1.1-9.2-2.1-13.8-3.2c-0.8-0.1-1.5-0.3-2.3-0.4
	c-5.5-1.1-10.8-2-16.2-2.9c-1.4-0.3-2.9-0.4-4.3-0.7c-36.4-5-75,0.3-108.9,14.1c3.6,1.1,5.8,1.1,9.5,0.1c1.4-0.3,1.4-0.3,2.9-0.7
	c1.5-0.5,1.5-0.5,3.1-0.9c49.5-12.7,109-11.3,154.5,14.5c7.3,4.4,14,9.5,20.8,14.8c6.2,4.8,12.8,9.1,19.4,13.3
	c5,3.2,9.8,6.7,14.6,10.3c2.1,1.6,2.1,1.6,4.6,2.7c2.8,1.4,3.2,2.9,4.4,5.6c1.7,2,3.6,3.9,5.5,5.8c5.4,5.7,10,11.7,14.4,18.3
	c0.3-0.8,0.8-1.5,1.1-2.3c-6.6-14-18.1-25.1-29.2-35.6c-2-2-3.9-3.8-5.8-5.7c5.5,2.4,9.8,5.5,14.4,9.4c0.7,0.6,1.3,1.1,2,1.7
	c14.9,12.8,25.9,27.3,36,44c1.2,2,2.3,3.8,3.5,5.7C494.5,206.7,494.5,206.7,495.1,205.5z M258.5,104.3
	c-31.2,1.5-58.4,16.8-81.8,36.4c-0.9,0.9-0.9,0.9-2,1.6c-13.4,11.2-25.9,23.3-37.1,36.8c-0.8,0.9-1.7,2-2.5,2.9
	c-5.8,6.8-10.8,13.9-13.5,22.6c0.3,0.8,0.9,1.5,1.2,2.3c6.1-7.2,12.1-14.4,17.9-21.7c18.1-22.5,38.1-40.7,62.5-56.2
	c1.3-0.9,2.6-1.6,3.9-2.5c15.9-9.7,33.4-16.4,51.4-21.1C258.6,105.1,258.6,104.6,258.5,104.3z"/>
<g>
	<g>
		<path class="st0" d="M271,209.6c-13.2,0.4-13.2-20.7,0-20.3c8.8,1.7,36-5.7,35.6,10.2v243.7c0.2,13-20.6,13.3-20.3,0V209.7
			L271,209.6L271,209.6z"/>
	</g>
	<g>
		<path class="st0" d="M362,433c13.2-0.4,13.2,20.7,0,20.3c-8.8-1.7-36,5.7-35.6-10.2V199.4c-0.2-13,20.6-13.3,20.3,0v233.5L362,433
			L362,433z"/>
	</g>
</g>
</svg>
