<?xml version="1.0" encoding="utf-8"?>
<!-- Generator: Adobe Illustrator 26.4.1, SVG Export Plug-In . SVG Version: 6.00 Build 0)  -->
<svg version="1.1" id="svg" xmlns="http://www.w3.org/2000/svg" xmlns:xlink="http://www.w3.org/1999/xlink" x="0px" y="0px"
	 viewBox="0 0 600 600" style="enable-background:new 0 0 600 600;" xml:space="preserve">
<style type="text/css">
	.st0{fill:#FFFFFF;}
</style>
<path class="st0" d="M558.9,398.7c-0.4,0.9-0.8,1.9-1.2,2.8c-18.3,42.9-48.9,80.3-89.1,104.3c-5,3.1-7.3,6-10.2,11
	c-2.4,1.5-2.4,1.5-5.1,2.5c-5.8,2.3-10.9,5.2-16.3,8.5c-16.8,10-33.3,14.4-52.7,13.9c0.4-2.6,0.4-2.6,1.3-5.4
	c4.8-2.5,4.8-2.5,9.4-4.1c0-0.9,0-1.8,0-2.7c-2.7-0.4-5.4-0.9-8.1-1.3c0.1-2.6,0.1-2.6,1.3-5.4c3.4-1.8,3.4-1.8,7.8-3.3
	c14.7-5.4,27.7-12.6,40.6-21.3c-0.7,0.4-1.3,0.7-2,1.1c-30.3,15.5-69.1,27.2-103.5,18.7c-3.7-1.2-7-2.4-10.6-4.1
	c-0.4-2.2-1-4.5-1.4-6.7c8.6-6.3,17.1-6.9,27.5-7.8c30.9-3,55-13.6,78.9-33.5c0.8-0.7,1.5-1.2,2.3-1.9c5.1-4.4,10.2-8.7,15.2-13.1
	c1.7-1.5,1.7-1.5,3.6-3.1c33.4-29.7,54.1-67,56.8-112c0.8-25.8-3.2-54-11.7-78.4c-0.6-1.6-1.1-3.2-1.7-4.9
	c-8-21-19.9-39.3-35.2-55.7c-1-0.9-1.9-2-2.9-3.1c-11.2-11.7-24.7-20.1-38.4-28.4c-1.1-0.7-2.3-1.5-3.5-2.1
	c-6.5-3.9-11.5-6.1-19.1-6.5c-0.4,0.9-0.9,1.8-1.3,2.7c-6.4-0.8-11.5-2.5-17.3-5c-39.5-15.9-83.2-18.3-123.2-2.1
	c-7.9,3.6-15.3,7.9-22.9,12.3c-1.9,1.1-1.9,1.1-3.9,2.3c-39.8,23.1-39.8,23.1-69.4,57.6c-1.7,2.7-3.5,5.3-5.3,8
	c-16.4,24.3-37.7,56.3-33.7,86.9c0.4,1.3,1,2.6,1.4,3.9c2.9,9.4,1.6,20.1,1.4,29.8c0,14.7,1.3,28.2,6.8,42c0.4,0.9,0.7,1.9,1.1,2.8
	c16.6,40.9,52.8,70.5,89.1,93.8c1.4,0.9,2.7,2,4.2,2.9c3.8,2.3,5,2.9,9.3,2.6c8.8,0.6,15.8,5.7,23.3,10.1
	c21.4,12.7,44.6,21.8,68.5,28.6c3,0.9,3,0.9,5.7,2.3c0,1.4,0,2.7,0,4.1c-35.4,12.1-83.7-10.5-115-24.9
	c22.2,13.1,46.1,23.6,71.8,27.9c0,1.4,0,2.7,0,4.1c-40,1.9-83.3-16.9-115.1-39.7c-0.8-0.5-1.5-1.1-2.3-1.6
	c-17.6-12.6-33.4-26.9-46.6-44c-1.9-2.3-3.7-4.7-5.6-7c-1.4-1.7-2.7-3.4-4-5.1c5.5,9.1,11.5,17.3,18.8,25.1c2.6,2.7,4.9,5.5,7.4,8.3
	c15.2,17.2,35.2,30.6,55.7,40.9c3.9,2,3.9,2,6.6,3.9c9.1,5.7,18.3,9.2,28.4,12.4c1.6,0.5,3.2,1.1,4.9,1.6
	c15.3,4.8,30.5,9.1,46.4,10.8c0,1.4,0,2.7,0,4.1c-55.6,1.3-108.5-10.9-150.3-50.3c-1.4-1.2-1.4-1.2-2.9-2.5
	c-41.5-38.5-65.3-106.9-72.6-161.7c-0.1-1.6-0.1-1.6-0.4-3.1c-1.1-9-1.3-18.1-1.3-27.3c0-1.5,0-2.8,0-4.3
	c-0.1-21.6-0.1-21.6,2.6-27.3c1.4,0,2.7,0,4.1,0c0.1,1.3,0.3,2.7,0.4,4c1.3,13,3.4,25.8,5.9,38.5c0.3,1.5,0.6,3,0.8,4.5
	c1.7,8.4,3.9,16.3,6.8,24.4c-0.3-1.1-0.6-2.3-0.7-3.4c-1-4.2-1.8-8.5-2.8-12.7c-0.4-1.9-0.8-3.6-1.3-5.5
	c-6.7-30.9-7.4-59.9,1.3-90.5c-2,4.2-3.9,8.3-5.9,12.5c-0.5,1.2-1.1,2.3-1.6,3.5c-0.5,1.1-1.1,2.3-1.6,3.4c-0.5,1.1-0.9,2-1.5,3.1
	c-1.5,3.3-2.8,6.5-4.1,9.9c-1.4-0.4-2.7-0.9-4.1-1.3c5.3-53,34.4-102.5,71.8-139.3c6-6,10.6-12,14.9-19.3
	c-47.4,33.8-76.6,90.5-86.2,147.1c-7.2,46.4-3.7,91.5,1.5,137.9c0.3,2.3,0.4,4.6,0.7,6.9c0.1,1.8,0.1,1.8,0.3,3.6
	c0.1,1.1,0.1,2.2,0.3,3.2c0.7,5.3,2.6,10.2,4.6,15.2c1.8,5,3.4,10.1,5.1,15.1c0.4,1.3,0.8,2.6,1.4,3.9c2.1,6.5,3.9,11.9,3.2,18.8
	c-4.1-1.3-4.1-1.3-5.3-3.5c-0.4-0.9-0.7-1.9-1.1-2.8c-0.6-1.5-0.6-1.5-1.2-3.1c-0.4-1.1-0.8-2.2-1.2-3.4c-0.8-2.3-1.7-4.4-2.6-6.7
	c-0.4-1.1-0.8-2.2-1.2-3.2c-1.2-3.2-2.5-6.3-3.7-9.6c-0.6-1.5-0.6-1.5-1.2-3.1c-1.4-3.1-2.7-6.2-4.1-9.3
	c-14-31.2-21.7-65.2-19.9-99.5c0-1.1,0.1-2,0.1-3.1c3.3-63.9,29.6-141.3,76.9-186.9c10.9-9.5,22.7-17.8,34.4-26.2
	c6.2-4.4,12.1-9,17.9-13.8c29.5-24,66.3-40.8,103.8-47.2c2.4-0.4,2.4-0.4,4.9-0.8C334.8,32.1,409.9,55.2,469.4,98
	c7.5,5.6,14.4,11.5,21.2,18c0.8,0.7,1.5,1.3,2.3,2.1C567.9,187.6,600,302.6,558.9,398.7z M547,235.4c-0.8-2.4-0.8-2.4-1.5-5
	c-3-9.3-6.5-18.3-10.5-27.2c-0.4-0.9-0.8-1.9-1.2-2.8c-1.9-5-1.9-5-6-8.1c1,5.7,2.9,10.5,5.2,15.8c10.8,25.9,15.9,53,16.2,81.1
	c0,1.8,0,1.8,0,3.5c-0.1,20.7-3.5,40.9-7.8,61c-0.3,1.1-0.5,2.2-0.7,3.4c-5.1,23.7-12,45.1-21.8,67.1c-0.8,1.9-0.8,1.9-1.7,3.8
	c-0.5,1.1-1.1,2.3-1.6,3.4c-0.3,0.9-0.7,1.9-0.9,2.8c0.7,1.3,0.7,1.3,1.4,2.7c21.3-32,35.6-67.2,39.8-105.6c0.1-0.9,0.3-1.8,0.4-2.7
	C559.7,297.6,556.5,265,547,235.4z M527.8,189.6c-7.4-18.3-22-35.6-35.6-49.7c-2.6-2.7-2.6-2.7-4-5.4c-0.9,0-1.8,0-2.7,0
	c-0.3-0.8-0.7-1.5-1-2.3c-18.9-32.6-75.8-56.5-110.4-66.1c-5.3-1.3-10.7-2.5-16.1-3.7c-0.9-0.1-1.8-0.4-2.7-0.5
	c-6.4-1.3-12.6-2.3-18.9-3.4c-1.6-0.3-3.4-0.5-5-0.8c-42.5-5.9-87.7,0.3-127.3,16.5c4.2,1.3,6.8,1.3,11.1,0.1
	c1.6-0.4,1.6-0.4,3.4-0.8c1.8-0.6,1.8-0.6,3.6-1c57.8-14.8,127.4-13.2,180.6,16.9c8.5,5.1,16.4,11.1,24.3,17.3
	c7.3,5.6,14.9,10.6,22.7,15.6c5.8,3.7,11.5,7.8,17.1,12c2.4,1.9,2.4,1.9,5.4,3.2c3.3,1.6,3.7,3.4,5.2,6.6c2,2.3,4.2,4.6,6.4,6.8
	c6.3,6.7,11.7,13.7,16.8,21.4c0.4-0.9,0.9-1.8,1.3-2.7c-7.7-16.4-21.1-29.3-34.1-41.6c-2.3-2.3-4.5-4.4-6.8-6.7
	c6.4,2.8,11.5,6.4,16.8,11c0.8,0.7,1.5,1.3,2.3,2c17.4,14.9,30.3,31.9,42.1,51.4c1.4,2.3,2.7,4.4,4.1,6.7
	C527.1,191,527.1,191,527.8,189.6z M251.4,71.3c-36.5,1.7-68.2,19.6-95.6,42.5c-1.1,1-1.1,1-2.3,1.9c-15.7,13.1-30.3,27.2-43.3,43
	c-0.9,1.1-2,2.3-2.9,3.4c-6.8,8-12.6,16.2-15.8,26.4c0.4,0.9,1,1.7,1.4,2.7c7.1-8.4,14.1-16.8,20.9-25.4
	c21.2-26.3,44.5-47.6,73-65.7c1.5-1,3-1.9,4.6-2.9c18.6-11.3,39-19.2,60.1-24.6C251.5,72.2,251.5,71.7,251.4,71.3z"/>
<g>
	<g>
		<path class="st0" d="M246.8,192.5c-15.4,0.5-15.4-24.2,0-23.7c10.3,2,42.1-6.7,41.6,11.9c0,0,0,284.8,0,284.8
			c0.2,15.2-24.1,15.6-23.7,0c0,0,0-272.9,0-272.9H246.8z"/>
	</g>
	<g>
		<path class="st0" d="M353.2,453.5c15.4-0.5,15.4,24.2,0,23.7c-10.3-2-42.1,6.7-41.6-11.9c0,0,0-284.8,0-284.8
			c-0.2-15.2,24.1-15.6,23.7,0c0,0,0,272.9,0,272.9H353.2z"/>
	</g>
</g>
</svg>
