<?xml version="1.0" encoding="utf-8"?>
<!-- Generator: Adobe Illustrator 26.4.1, SVG Export Plug-In . SVG Version: 6.00 Build 0)  -->
<svg version="1.1" id="svg" xmlns="http://www.w3.org/2000/svg" xmlns:xlink="http://www.w3.org/1999/xlink" x="0px" y="0px"
	 viewBox="0 0 600 600" style="enable-background:new 0 0 600 600;" xml:space="preserve">
<style type="text/css">
	.st0{fill:#6314AD;}
</style>
<path class="st0" d="M359,109c0.7,0.3,1.4,0.6,2.1,0.9c31.7,13.8,59.2,36.6,76.8,66.5c2.3,3.7,4.4,5.4,8.1,7.6
	c1.1,1.8,1.1,1.8,1.8,3.8c1.7,4.3,3.8,8.1,6.2,12.1c7.3,12.5,10.5,24.7,10,39.1c-1.9-0.3-1.9-0.3-4-1c-1.8-3.6-1.8-3.6-3-7
	c-0.7,0-1.3,0-2,0c-0.3,2-0.7,4-1,6c-1.9-0.1-1.9-0.1-4-1c-1.3-2.5-1.3-2.5-2.4-5.8c-3.9-10.9-9.2-20.6-15.6-30.2
	c0.3,0.5,0.5,1,0.8,1.5c11.3,22.5,19.8,51.3,13.3,76.7c-0.9,2.7-1.8,5.2-3.1,7.8c-1.6,0.3-3.3,0.7-5,1c-4.6-6.4-5-12.7-5.6-20.4
	c-2.1-22.9-9.8-40.8-24.4-58.6c-0.5-0.6-0.9-1.1-1.4-1.7c-3.2-3.8-6.4-7.6-9.6-11.3c-1.1-1.3-1.1-1.3-2.3-2.7
	c-21.8-24.9-49.3-40.4-82.6-42.6c-19.1-0.7-40,2.1-58.1,8.3c-1.2,0.4-2.4,0.8-3.6,1.2c-15.6,5.8-29.2,14.5-41.4,25.8
	c-0.7,0.7-1.5,1.4-2.3,2.1c-8.7,8.2-15,18.2-21.2,28.3c-0.5,0.8-1.1,1.7-1.6,2.6c-2.9,4.8-4.6,8.5-4.9,14.1c0.7,0.3,1.3,0.7,2,1
	c-0.6,4.7-1.9,8.5-3.8,12.8c-12,29.2-14,61.5-2.2,91.2c2.6,5.9,5.8,11.4,9,17c0.8,1.4,0.8,1.4,1.7,2.9
	c16.9,29.6,16.9,29.6,42.3,51.7c2,1.3,3.9,2.6,5.9,4c17.9,12.3,41.5,28.2,64.2,25.4c1-0.3,1.9-0.7,2.9-1c7-2.1,14.9-1.1,22.1-0.9
	c10.9,0.1,20.9-0.8,31.1-4.8c0.7-0.3,1.4-0.5,2.1-0.8c30.4-12.1,52.5-38.7,69.9-65.5c0.7-1,1.5-2,2.2-3.1c1.7-2.8,2.2-3.7,2-6.9
	c0.5-6.5,4.3-11.7,7.6-17.2c9.5-15.8,16.4-32.9,21.5-50.6c0.7-2.2,0.7-2.2,1.7-4.2c1,0,2,0,3,0c8.8,26.3-8.2,61.9-19,85
	c9.8-16.4,17.7-34,21-53c1,0,2,0,3,0c1.2,29.6-12.9,61.6-30,85c-0.4,0.6-0.8,1.1-1.2,1.7c-9.4,13-20.1,24.6-32.8,34.3
	c-1.7,1.4-3.5,2.7-5.2,4.1c-1.3,1-2.5,2-3.8,2.9c6.8-4,12.9-8.4,18.7-13.8c2-1.9,4.1-3.6,6.2-5.4c12.8-11.2,22.8-25.9,30.6-41
	c1.5-2.9,1.5-2.9,2.9-4.9c4.3-6.7,6.9-13.5,9.3-21c0.4-1.2,0.8-2.4,1.2-3.6c3.6-11.3,6.9-22.5,8.2-34.3c1,0,2,0,3,0
	c0.7,41.2-8.6,80.3-38,111c-0.9,1-0.9,1-1.9,2.1c-28.7,30.5-79.5,47.8-120.1,52.9c-1.2,0.1-1.2,0.1-2.3,0.3
	c-6.7,0.8-13.4,0.9-20.2,0.8c-1.1,0-2.1,0-3.2,0c-16,0-16,0-20.2-2.1c0-1,0-2,0-3c1-0.1,2-0.2,3-0.3c9.6-0.9,19.1-2.4,28.5-4.2
	c1.1-0.2,2.2-0.4,3.3-0.6c6.2-1.2,12.1-2.8,18.1-4.9c-0.8,0.2-1.7,0.4-2.5,0.5c-3.1,0.7-6.3,1.3-9.4,2c-1.4,0.3-2.7,0.6-4.1,0.9
	c-22.9,4.8-44.4,5.2-67-1.4c3.1,1.5,6.1,2.9,9.2,4.4c0.9,0.4,1.7,0.8,2.6,1.2c0.8,0.4,1.7,0.8,2.5,1.2c0.8,0.4,1.5,0.7,2.3,1.1
	c2.4,1.1,4.8,2.1,7.3,3.1c-0.3,1-0.7,2-1,3c-39.2-4.2-75.7-26-102.8-53.9c-4.4-4.5-8.8-7.9-14.2-11.1
	c24.8,35.3,66.6,57.2,108.5,64.6c34.3,5.6,67.7,3.2,102.1-0.4c1.7-0.2,3.4-0.3,5.1-0.5c1.3-0.1,1.3-0.1,2.7-0.2
	c0.8-0.1,1.6-0.1,2.4-0.2c3.9-0.5,7.6-1.9,11.3-3.3c3.7-1.3,7.5-2.5,11.2-3.7c1-0.3,1.9-0.6,2.9-1c4.8-1.5,8.8-2.8,13.9-2.3
	c-1,3-1,3-2.6,3.9c-0.7,0.3-1.4,0.5-2.1,0.8c-1.1,0.4-1.1,0.4-2.3,0.9c-0.8,0.3-1.6,0.6-2.5,0.9c-1.7,0.6-3.3,1.2-5,1.9
	c-0.8,0.3-1.6,0.6-2.4,0.9c-2.4,0.9-4.7,1.8-7.1,2.7c-1.1,0.4-1.1,0.4-2.3,0.9c-2.3,1-4.6,2-6.9,3c-23.2,10.2-48.4,15.7-73.8,14.2
	c-0.8,0-1.5-0.1-2.3-0.1c-47.3-2.8-104.5-22.6-138-57.9c-7-8.1-13.1-16.9-19.2-25.6c-3.2-4.6-6.6-9-10.1-13.3
	c-17.6-22-29.9-49.3-34.4-77.1c-0.3-1.8-0.3-1.8-0.6-3.6c-8.3-54.5,9.2-110,41.2-153.8c4.2-5.5,8.6-10.6,13.4-15.6
	c0.5-0.6,1-1.1,1.6-1.7C202.7,101.3,288,78.1,359,109z M238,117c-1.8,0.6-1.8,0.6-3.7,1.1c-6.9,2.2-13.6,4.7-20.2,7.6
	c-0.7,0.3-1.4,0.6-2.1,0.9c-3.7,1.4-3.7,1.4-6,4.4c4.2-0.7,7.8-2.1,11.7-3.8c19.2-7.9,39.3-11.5,60.1-11.6c1.3,0,1.3,0,2.6,0
	c15.3,0.2,30.3,2.8,45.1,6.1c0.8,0.2,1.6,0.4,2.5,0.5c17.5,3.9,33.3,9.1,49.6,16.5c1.4,0.6,1.4,0.6,2.8,1.3c0.8,0.4,1.7,0.8,2.5,1.2
	c0.7,0.2,1.4,0.5,2.1,0.7c1-0.5,1-0.5,2-1c-23.6-15.9-49.6-26.7-78-30c-0.7-0.1-1.3-0.2-2-0.3C284.1,107.9,260,110.1,238,117z
	 M204,131c-13.6,5.4-26.5,16.1-37,26.1c-2,1.9-2,1.9-4,2.9c0,0.7,0,1.3,0,2c-0.6,0.2-1.1,0.5-1.7,0.7
	c-24.2,13.8-42.2,55.8-49.5,81.4c-1,3.9-1.9,7.9-2.8,11.9c-0.1,0.7-0.3,1.3-0.4,2c-1,4.7-1.8,9.3-2.6,14c-0.2,1.2-0.4,2.5-0.6,3.7
	c-4.6,31.4-0.2,64.9,11.6,94.3c1-3.1,1-5,0.1-8.2c-0.3-1.2-0.3-1.2-0.6-2.5c-0.4-1.3-0.4-1.3-0.7-2.7
	c-10.7-42.9-9.1-94.4,13.4-133.6c3.8-6.3,8.3-12.1,12.9-17.9c4.2-5.4,7.9-11,11.7-16.7c2.8-4.3,5.8-8.5,9-12.6
	c1.4-1.8,1.4-1.8,2.4-4c1.2-2.4,2.5-2.7,4.9-3.8c1.7-1.5,3.4-3.1,5.1-4.7c5-4.6,10.2-8.6,15.9-12.3c-0.7-0.3-1.3-0.7-2-1
	c-12.2,5.6-21.8,15.5-31,25c-1.7,1.7-3.3,3.3-5,5c2.1-4.7,4.8-8.5,8.2-12.4c0.5-0.6,1-1.1,1.5-1.7c11.1-12.8,23.8-22.3,38.3-30.9
	c1.7-1,3.3-2,5-3C205,131.5,205,131.5,204,131z M115,335c1.1,27,14.2,50.6,31,71c0.7,0.8,0.7,0.8,1.4,1.7
	c9.6,11.7,20,22.6,31.6,32.3c0.8,0.7,1.7,1.5,2.5,2.2c5.9,5.1,11.9,9.4,19.5,11.8c0.7-0.3,1.3-0.7,2-1c-6.2-5.3-12.4-10.5-18.7-15.6
	c-19.4-15.8-35-33.2-48.3-54.4c-0.7-1.1-1.4-2.2-2.1-3.4c-8.3-13.8-14-29-17.9-44.6C115.7,335,115.3,335,115,335z"/>
</svg>
