<?xml version="1.0" encoding="utf-8"?>
<!-- Generator: Adobe Illustrator 26.4.1, SVG Export Plug-In . SVG Version: 6.00 Build 0)  -->
<svg version="1.1" id="svg" xmlns="http://www.w3.org/2000/svg" xmlns:xlink="http://www.w3.org/1999/xlink" x="0px" y="0px"
	 viewBox="0 0 600 600" style="enable-background:new 0 0 600 600;" xml:space="preserve">
<style type="text/css">
	.st0{fill:#6314AD;}
</style>
<path class="st0" d="M491.3,374.5c-0.3,0.7-0.6,1.4-0.9,2.1c-13.8,31.7-36.6,59.2-66.5,76.8c-3.7,2.3-5.4,4.4-7.6,8.1
	c-1.8,1.1-1.8,1.1-3.8,1.8c-4.3,1.7-8.1,3.8-12.1,6.2c-12.5,7.3-24.7,10.5-39.1,10c0.3-1.9,0.3-1.9,1-4c3.6-1.8,3.6-1.8,7-3
	c0-0.7,0-1.3,0-2c-2-0.3-4-0.7-6-1c0.1-1.9,0.1-1.9,1-4c2.5-1.3,2.5-1.3,5.8-2.4c10.9-3.9,20.6-9.2,30.2-15.6
	c-0.5,0.3-1,0.5-1.5,0.8c-22.5,11.3-51.3,19.8-76.7,13.3c-2.7-0.9-5.2-1.8-7.8-3.1c-0.3-1.6-0.7-3.3-1-5c6.4-4.6,12.7-5,20.4-5.6
	c22.9-2.1,40.8-9.8,58.6-24.4c0.6-0.5,1.1-0.9,1.7-1.4c3.8-3.2,7.6-6.4,11.3-9.6c1.3-1.1,1.3-1.1,2.7-2.3
	c24.9-21.8,40.4-49.3,42.6-82.6c0.7-19.1-2.1-40-8.3-58.1c-0.4-1.2-0.8-2.4-1.2-3.6c-5.8-15.6-14.5-29.2-25.8-41.4
	c-0.7-0.7-1.4-1.5-2.1-2.3c-8.2-8.7-18.2-15-28.3-21.2c-0.8-0.5-1.7-1.1-2.6-1.6c-4.8-2.9-8.5-4.6-14.1-4.9c-0.3,0.7-0.7,1.3-1,2
	c-4.7-0.6-8.5-1.9-12.8-3.8c-29.2-12-61.5-14-91.2-2.2c-5.9,2.6-11.4,5.8-17,9c-1.4,0.8-1.4,0.8-2.9,1.7
	c-29.6,16.9-29.6,16.9-51.7,42.3c-1.3,2-2.6,3.9-4,5.9c-12.3,17.9-28.2,41.5-25.4,64.2c0.3,1,0.7,1.9,1,2.9c2.1,7,1.1,14.9,0.9,22.1
	c-0.1,10.9,0.8,20.9,4.8,31.1c0.3,0.7,0.5,1.4,0.8,2.1c12.1,30.4,38.7,52.5,65.5,69.9c1,0.7,2,1.5,3.1,2.2c2.8,1.7,3.7,2.2,6.9,2
	c6.5,0.5,11.7,4.3,17.2,7.6c15.8,9.5,32.9,16.4,50.6,21.5c2.2,0.7,2.2,0.7,4.2,1.7c0,1,0,2,0,3c-26.3,8.8-61.9-8.2-85-19
	c16.4,9.8,34,17.7,53,21c0,1,0,2,0,3c-29.6,1.2-61.6-12.9-85-30c-0.6-0.4-1.1-0.8-1.7-1.2c-13-9.4-24.6-20.1-34.3-32.8
	c-1.4-1.7-2.7-3.5-4.1-5.2c-1-1.3-2-2.5-2.9-3.8c4,6.8,8.4,12.9,13.8,18.7c1.9,2,3.6,4.1,5.4,6.2c11.2,12.8,25.9,22.8,41,30.6
	c2.9,1.5,2.9,1.5,4.9,2.9c6.7,4.3,13.5,6.9,21,9.3c1.2,0.4,2.4,0.8,3.6,1.2c11.3,3.6,22.5,6.9,34.3,8.2c0,1,0,2,0,3
	c-41.2,0.7-80.3-8.6-111-38c-1-0.9-1-0.9-2.1-1.9c-30.5-28.7-47.8-79.5-52.9-120.1c-0.1-1.2-0.1-1.2-0.3-2.3
	c-0.8-6.7-0.9-13.4-0.8-20.2c0-1.1,0-2.1,0-3.2c0-16,0-16,2.1-20.2c1,0,2,0,3,0c0.1,1,0.2,2,0.3,3c0.9,9.6,2.4,19.1,4.2,28.5
	c0.2,1.1,0.4,2.2,0.6,3.3c1.2,6.2,2.8,12.1,4.9,18.1c-0.2-0.8-0.4-1.7-0.5-2.5c-0.7-3.1-1.3-6.3-2-9.4c-0.3-1.4-0.6-2.7-0.9-4.1
	c-4.8-22.9-5.2-44.4,1.4-67c-1.5,3.1-2.9,6.1-4.4,9.2c-0.4,0.9-0.8,1.7-1.2,2.6c-0.4,0.8-0.8,1.7-1.2,2.5c-0.4,0.8-0.7,1.5-1.1,2.3
	c-1.1,2.4-2.1,4.8-3.1,7.3c-1-0.3-2-0.7-3-1c4.2-39.2,26-75.7,53.9-102.8c4.5-4.4,7.9-8.8,11.1-14.2
	c-35.3,24.8-57.2,66.6-64.6,108.5c-5.6,34.3-3.2,67.7,0.4,102.1c0.2,1.7,0.3,3.4,0.5,5.1c0.1,1.3,0.1,1.3,0.2,2.7
	c0.1,0.8,0.1,1.6,0.2,2.4c0.5,3.9,1.9,7.6,3.3,11.3c1.3,3.7,2.5,7.5,3.7,11.2c0.3,1,0.6,1.9,1,2.9c1.5,4.8,2.8,8.8,2.3,13.9
	c-3-1-3-1-3.9-2.6c-0.3-0.7-0.5-1.4-0.8-2.1c-0.4-1.1-0.4-1.1-0.9-2.3c-0.3-0.8-0.6-1.6-0.9-2.5c-0.6-1.7-1.2-3.3-1.9-5
	c-0.3-0.8-0.6-1.6-0.9-2.4c-0.9-2.4-1.8-4.7-2.7-7.1c-0.4-1.1-0.4-1.1-0.9-2.3c-1-2.3-2-4.6-3-6.9c-10.2-23.2-15.7-48.4-14.2-73.8
	c0-0.8,0.1-1.5,0.1-2.3c2.8-47.3,22.6-104.5,57.9-138c8.1-7,16.9-13.1,25.6-19.2c4.6-3.2,9-6.6,13.3-10.1
	c22-17.6,49.3-29.9,77.1-34.4c1.8-0.3,1.8-0.3,3.6-0.6c54.5-8.3,110,9.2,153.8,41.2c5.5,4.2,10.6,8.6,15.6,13.4
	c0.6,0.5,1.1,1,1.7,1.6C499,218.2,522.2,303.5,491.3,374.5z M483.3,253.5c-0.6-1.8-0.6-1.8-1.1-3.7c-2.2-6.9-4.7-13.6-7.6-20.2
	c-0.3-0.7-0.6-1.4-0.9-2.1c-1.4-3.7-1.4-3.7-4.4-6c0.7,4.2,2.1,7.8,3.8,11.7c7.9,19.2,11.5,39.3,11.6,60.1c0,1.3,0,1.3,0,2.6
	c-0.2,15.3-2.8,30.3-6.1,45.1c-0.2,0.8-0.4,1.6-0.5,2.5c-3.9,17.5-9.1,33.3-16.5,49.6c-0.6,1.4-0.6,1.4-1.3,2.8
	c-0.4,0.8-0.8,1.7-1.2,2.5c-0.2,0.7-0.5,1.4-0.7,2.1c0.5,1,0.5,1,1,2c15.9-23.6,26.7-49.6,30-78c0.1-0.7,0.2-1.3,0.3-2
	C492.4,299.6,490.2,275.5,483.3,253.5z M469.3,219.5c-5.4-13.6-16.1-26.5-26.1-37c-1.9-2-1.9-2-2.9-4c-0.7,0-1.3,0-2,0
	c-0.2-0.6-0.5-1.1-0.7-1.7c-13.8-24.2-55.8-42.2-81.4-49.5c-3.9-1-7.9-1.9-11.9-2.8c-0.7-0.1-1.3-0.3-2-0.4c-4.7-1-9.3-1.8-14-2.6
	c-1.2-0.2-2.5-0.4-3.7-0.6c-31.4-4.6-64.9-0.2-94.3,11.6c3.1,1,5,1,8.2,0.1c1.2-0.3,1.2-0.3,2.5-0.6c1.3-0.4,1.3-0.4,2.7-0.7
	c42.9-10.7,94.4-9.1,133.6,13.4c6.3,3.8,12.1,8.3,17.9,12.9c5.4,4.2,11,7.9,16.7,11.7c4.3,2.8,8.5,5.8,12.6,9c1.8,1.4,1.8,1.4,4,2.4
	c2.4,1.2,2.7,2.5,3.8,4.9c1.5,1.7,3.1,3.4,4.7,5.1c4.6,5,8.6,10.2,12.3,15.9c0.3-0.7,0.7-1.3,1-2c-5.6-12.2-15.5-21.8-25-31
	c-1.7-1.7-3.3-3.3-5-5c4.7,2.1,8.5,4.8,12.4,8.2c0.6,0.5,1.1,1,1.7,1.5c12.8,11.1,22.3,23.8,30.9,38.3c1,1.7,2,3.3,3,5
	C468.8,220.5,468.8,220.5,469.3,219.5z M265.3,130.5c-27,1.1-50.6,14.2-71,31c-0.8,0.7-0.8,0.7-1.7,1.4c-11.7,9.6-22.6,20-32.3,31.6
	c-0.7,0.8-1.5,1.7-2.2,2.5c-5.1,5.9-9.4,11.9-11.8,19.5c0.3,0.7,0.7,1.3,1,2c5.3-6.2,10.5-12.4,15.6-18.7
	c15.8-19.4,33.2-35,54.4-48.3c1.1-0.7,2.2-1.4,3.4-2.1c13.8-8.3,29-14,44.6-17.9C265.3,131.2,265.3,130.8,265.3,130.5z"/>
</svg>
