<?xml version="1.0" encoding="utf-8"?>
<!-- Generator: Adobe Illustrator 26.4.1, SVG Export Plug-In . SVG Version: 6.00 Build 0)  -->
<svg version="1.1" id="Capa_1" xmlns="http://www.w3.org/2000/svg" xmlns:xlink="http://www.w3.org/1999/xlink" x="0px" y="0px"
	 viewBox="0 0 3871 2367" style="enable-background:new 0 0 3871 2367;" xml:space="preserve">
<style type="text/css">
	.st0{opacity:0.6;fill-rule:evenodd;clip-rule:evenodd;fill:#AE60A0;}
	.st1{fill-rule:evenodd;clip-rule:evenodd;fill:#FFFFFF;fill-opacity:0.9;}
	.st2{fill-rule:evenodd;clip-rule:evenodd;fill:#FF5678;}
	.st3{fill-rule:evenodd;clip-rule:evenodd;}
</style>
<g id="composition-23">
	<rect class="st0" width="3871" height="2367"/>
	<path id="Path" class="st1" d="M2547.6,1350c191.1,195.6,339.1,473.9,298.6,730.3c-40.5,256.9-269.5,491.5-538.6,611.1
		s-577.9,124.8-809.9-0.4c-232-125.7-387.6-381.7-474.1-679.3c-86.9-297.6-104.2-636,51.5-822.9s484.2-222.1,765.6-184
		C2122.1,1043.3,2356.2,1154.8,2547.6,1350z"/>
	<g id="Illustrations_x2F_reading-side" transform="translate(1018.000000, 991.000000)">
		<path id="Accent" class="st2" d="M1323.1,1014.1c-8.1,9.4-20,16.3-29.2,24.9c-9.6,9-20.1,16.8-29.7,25.7
			c-42.3-51.7-100.3-83.4-150.5-126.3c-23.8-20.3-41.3-47.9-54.2-76.3c-6.6-14.5-11.4-29.5-15.2-44.9c-1.7-7-3.4-13.9-4.5-21
			c-1.4-8.6-1.7-9.3-7.5-16c-2.5-2.9-7.3-11.3-12.2-10.3c-4.1,0.8-11.6,13.2-14.2,16.3c-12.4,14.8-24.5,30.1-37.6,44.3
			c-20,21.8-38.3,43.2-56.9,66.3c-38.1,47.2-79.1,91.7-120.6,136.1c-3.1,3.3-10.2,13-14.7,14.3c-5.4,1.6-14.1-5-19.5-8.7
			c-13.1-8.9-23.3-19.9-34.5-30.9c-21.8-21.5-36.5-51.6-46.4-80.3c-5.9-17.2-9.8-35-15.9-52.1c-2.6-7.1-8.3-15.9-5.4-22.1
			c0.9-1.9,6.4-6.8,8.4-7.2c2.3-0.4,6.2,2.7,7,2.5c7.7-2.1,3.4-10.2,8-14.5c2.6-2.5,15.8-2.1,19.8-3.5c14.4-4.9,27.4-14.4,41-20
			c57.1-23.6,114.9-46.5,164.2-85c12.8-10,21.3-17.5,36.5-23.9c15.4-6.5,30.9-12.3,46.6-18c13.9-5,27.8-9.7,42.2-13.3
			c15.5-3.9,37.5-8.8,53-3.8c30.4,9.8,40.2,34.9,52.3,61.3c16.4,35.8,36.2,69.6,57.7,102.5C1232.5,893.5,1282.7,950.3,1323.1,1014.1
			"/>
		<g id="ink" transform="translate(62.719727, 159.458333)">
			<path id="ink-layer" class="st3" d="M344.3,294.8c-1.7-0.8-14.7,4.5-16.9,5.3c-8.8,3.3-17,8.7-25.3,13c6.3,7.7,12.7,15.4,19,23.1
				C327.3,321,335.3,308.4,344.3,294.8L344.3,294.8z M348.7,389.4c-2.2,0.2,16,43.9,18.1,48.8c7.7,17.8,15.8,35.5,23.7,53.3
				c7.6,17.2,17.2,33.1,26.9,49.2c8.3,13.8,16.8,35.1,29.3,45.3c-7.9-35-6.9-75.3-29.5-104.6C393.7,450.9,370.5,421.1,348.7,389.4
				L348.7,389.4z M1260.3,856.2c-35.1-55.5-79-104.6-115.5-159.2c-20.5-30.5-40.4-61.5-57.6-93.9c-12.5-23.6-20.3-57.4-39.7-75.4
				c-8.5-8-17.6-15.8-29.1-19.3c-15.7-4.9-37.2,0-53,3.8c-29.3,7.2-58,18.4-85.8,30.1c-28.2,11.9-52.2,33.3-77.7,50.4
				c-27.3,18.4-56.9,31.8-87.5,43.6c-26.6,10.2-50.3,24.9-76.8,35.2c-5.3,2.1-16.1,1.8-20.5,4.4c-4.8,2.9-2.9,11.4-8.7,14.5
				c-2.6,1.4-3.5-3.7-5.5-3.6c-2.5,0.1-4.7,3-7.1,4.8c-9.6,7.4-3.7,12.4,0.1,22.6c12.4,33.3,19.1,67.2,36.6,98.6
				c14.4,25.8,34.9,49,59.1,66.1c3.7,2.6,15.7,12.7,20,12c3.9-0.6,11.8-10.9,14.5-13.7c12.2-12.7,23.3-26.4,35.5-39.2
				c18.8-19.7,36.9-39.9,55.2-59.9c21.2-23.2,39.9-49.5,59-74.2c8.8-11.4,20.1-20.7,29.8-31.3c13.1-14.2,25.2-29.5,37.6-44.3
				c3.8-4.5,10.1-15.9,15.9-15.8c4.1,0.1,11.3,9.7,13.5,12.8c8,11.2,7.9,31.5,11.9,45.6c9.7,34.2,27.1,67.6,51,94.1
				c23.8,26.3,54.3,44.9,82.4,66c30.5,22.9,59.4,46.3,83.5,75.8c9.6-8.9,20-16.7,29.7-25.7C1240.3,872.5,1252.3,865.6,1260.3,856.2
				L1260.3,856.2z M809,1013.3c6.8,0.1,18.4,4.3,24.5,1.7c-18.1-20-34.7-37.2-57.6-51.8c-23.7-15.2-47.4-30.3-70.5-46.5
				c-46.5-32.7-80.7-71.5-100.1-126c-5-14-8.3-28.7-12-43.2c-2-7.8-5.9-44.1-12.6-47.2c-3.9-1.9-33.7,19-38.4,21.6
				c-11,6.1-22.1,10.8-33.4,15.6c-24.5,10.2-49.7,18-75.6,24.6c-31.1,7.8-52.3-5.1-71.5-29.6c-21.9-27.7-40-59-60-88.1
				c-9.1-13.2-16.6-26.5-23.3-41.1c-4.4-9.6-21.8-35.3-15.8-45.5c17.2,13.1,23.4,39.1,35,56.6c14.6,21.8,31,42.4,45.7,64.2
				c12.3,18.3,24.9,40.5,43.1,53.7c16,11.6,31.2,8,48.5,2.8c20.9-6.3,42.5-9.4,63-17.2c22.2-8.5,43.1-20.5,64.7-30.3
				c10.1-4.6,22.1-7.2,31.6-12.9c8.2-4.9,7-7.5,7.6-17.9c0.7-12.2,1.5-24.4,2.1-36.6c0.4-8.2-4.1-19.3-1.1-25.4
				c-24.5,4.3-48.5,10-72.9,15c-13.3,2.8-26.2,6.2-39.7,8.3c-5.1,0.8-12.2,0.8-16.8,3c-3.7-1.1-5.5-0.4-5.6,2
				c-0.2,1.3-0.5,2.6-0.8,3.8c-7.5,3.4-11.9-3.9-18.4-11c-8.1-8.7-14.1-18.5-20-28.7c-13.2-22.8-28.4-44.3-40.7-67.8
				c-12.5-23.9-22.6-49.5-33.1-74.4c-9.7-22.8-15.9-47.4-26.6-69.6c-4.8-9.9-10.8-18.1-17.9-26.5c-5.8-6.9-14.8-21.8-23.5-25
				c-2.3-0.8-8.3,0.6-11,0.4c-5.2-0.4-9.9-2.3-15.2-1.9c-11.6,0.9-24.2,8.2-33.4,14.6c6,5.3,20.9,11.8,10.2,21.4
				c-10.4,9.3-16.2-7.4-20.1-14.7c-18.7,15.4-16,36.5-18.2,58.2c-1.1,11.3-4.1,22.5-6,33.6c-1.4,8-0.4,16.3-0.8,24.5
				c-1,20.8-3.1,40.8-3,61.3c0.1,22,1.6,43.2,3.4,65c3,36.7,9.7,73.4,15.6,109.8c3.3,20.5,7.7,40.4,12.1,60.5
				c4.9,22.9,14.1,44.5,19.2,67.3c5.2-6.6,9.1-6.7,17.6-5.8c6.5,0.7,10.8-0.9,10.5,8.1c-0.2,5.8-5.4,10.3-11.1,11.3
				c-7.4,1.3-10-2.4-13.8-8c-0.9,10.7,6.3,21.8,9.1,32.2c2.7,9.9,4.5,19.5,9,29c4.4,9.2,8.2,18.3,12.6,27.4c2.1,4.2,4,8.5,6,12.6
				c1,2.1,2.3,5,3.8,6.8c3.7,4.2,3.1,2.2,7.4,4.5c9.4,5.2,5.8,3.9,6.1,14.6c0.2,10.6,5.6,18.4,14.4,24.3
				c18.5,12.6,36.7,16.1,57.7,22.5c19.6,5.9,40.2,11,60.9,10.9c25.4-0.1,50.4-3.5,75.8-3.8c28-0.4,56.3-0.2,84.2,0.7
				c11.5,0.4,22.2,0.9,33.3,3.8c12.9,3.4,25.4,2.1,38.7,1.5c28.4-1.1,57.7-3.3,85.7-3.5C767.5,1013.5,788.8,1012.1,809,1013.3
				L809,1013.3z M1544.8,1024.3c5,2.7,16.4,1.6,21.4,0.8c8.9-1.3,9.9-4.8,15.6-12.8c9.8-13.7,17.7-26.8,23.4-42.7
				c11-30.4,15.5-61.5,20.3-93.3c5.4-35.3-4.4-72-7.9-107.1c-0.8-8.1-1.9-16-3.2-24c-0.8-4.8-1-21-4.1-25.2
				c-6-7.9-34.1-1.5-45.2-0.8c-30.8,2-61.9,2.5-92.7,2.8c-16.4,0.2-33,0.9-49.2,1c-7.5,0.1-14.8-0.3-22.3-1c-2.5-0.2-5-0.8-7.5-1
				c-8.7-0.5-8-1.7-10.2,5.9c-3.9,13.4-0.9,30.5-1.9,44.4c-1.4,18.6-2.1,37.5-1.8,56.1c0.3,17.2-0.3,34.4,0.4,51.7
				c0.3,7.2,1.1,13,2.9,19.8c2.1,7.7,4.5,25.8,9.8,31.1c0.6,0.6,5.1-0.8,6.3,0.7c1.8,2.3,1.5,7.3,2.8,8.8c4.1,4.9,12.6,5.3,18.7,7.5
				c16.9,6,32.4,12.6,48.3,20.7c14.2,7.3,37.2,13.4,45.7,27.7c3.9,6.6,4.4,15.2,8.1,22c4.1,7.7-4.1,3.7,5.9,6.8
				C1532.9,1025.7,1540.1,1024.3,1544.8,1024.3L1544.8,1024.3z M45.3,937.1C44,954.9,34,971.8,30.5,989.3
				c-1.6,8.2-4.4,16.3-6.3,24.4c-1.8,7.8-8.5,17.1-7.8,24.8c24.6-8.8,49.4-11,75.1-13.3c24.3-2.2,50-3.1,74.2-3.1
				c24.6,0,50.9-2.4,76.2-2.8c26.5-0.4,53.4-1.1,79.4-3.8c-13.6-10.1-30.7-19.6-40.8-33.6c-11-15.3-16.6-34.4-26.3-50.6
				c-19.3-32.4-31.6-72.5-41.8-108.9C192,749.1,169.1,677,163.6,600.9c-10.5,5.4-18.8,26.2-24.1,36.6c-6.7,13.2-10.2,27.6-14.6,41.7
				c-9,29-15.2,59.1-26.2,87.8C77.8,821.9,64.3,881.1,45.3,937.1L45.3,937.1z M1378.8,509.3c4.5,32.8,14.1,66.1,14.4,99.3
				c0.1,7.3-1.2,15.4,0.4,22.6c1.6,7.7,6.9,14.5,10,21.8c4.8,11.6,17.1,35.4,5.3,45.2c-0.2-9.3-8.8-21.2-13.1-29.3
				c-6.5-12.3-15-23.5-22-35.5c-14.7-25.1-31.2-49.7-50.2-71.8c-18.5-21.6-39.8-40.7-59.3-61.2c-5.9-6.2-53.1-65.5-55-64.7
				c14.6,56.5,39.5,105.6,73.6,152.9c16.7,23.2,36.8,38.4,57.1,58.1c16.9,16.4,48.8,33.8,43,60.6c26.5-2.5,52.8-6.6,79.5-6.6
				c-4.4-33.8-7.8-67.1-15.6-100.3c-8.9-37.7-14.9-76.6-22.5-114.7c-7.7-38.9-20.7-76.5-28.8-115.3c-7.8-37.2-14.4-74.3-20.1-111.8
				c-4.7,20.8-3,43.7-4.6,64.9c-1.7,21.7-1.5,43-1,64.8C1370.8,428.8,1375.1,468.9,1378.8,509.3L1378.8,509.3z M1493.5,316
				c0.1-17.4,3.5-34.5,4.5-51.8c0.3-5.3,5.6-41.6,0.7-43.4c-4.1,8.8-5,20.2-8.7,29.5c-3.7,9.3-8.6,18.1-12.1,27.4
				c-7.7,20.2-10.3,43.1-11.1,64.6c-1.9,48.6-2.8,97.2,0.4,145.8c1.4,20.9,2.5,41.7,2.1,62.6c-0.4,23-3.9,42.9,0.3,65.7
				c4.2,22.6,6.9,45.1,8.3,68c1,16.1,1.4,14.9,16.7,13.8c11.1-0.8,22.3,0.1,33.4-0.5c-5.2-62.7-6-125.5-14.3-187.9
				c-4.2-31.8-4.3-64.2-9.6-95.9c-2.6-15.8-7-31.2-9.5-47C1491.9,350.1,1493.2,333.1,1493.5,316L1493.5,316z M371.5,276.6
				c29.5,2.6,61,11.4,91.2,5.6c-5-2-18.1-4.8-12.2-12.8c6-8.1,16,2.2,22,1.1c3.7-0.7,11.8-16,14.1-19.2c5.1-7.2,5.8-8.5,15-10.3
				c9-1.8,11,0.1,12.1-8.8c1.3-10.2-2.2-21.7-1.9-32.2c0.8-22.5,8-42.3,14.8-63.5c-28.8,6.3-56.9,13.7-86.3,17.7
				c-12.6,1.7-32.1,5.7-43.5-2.8c-3-2.2-2.5-5.2-4.9-7.8c-4.1-4.3-11.6-8.8-17.4-10c-35.6-7.6-39,43.1-21.2,62.1
				c4.5,4.8,10.7,7.1,15.2,11.5c6.1,5.8,6.6,11.9,7.5,20.8c1.7,16.6-0.6,33.3-7.7,48.5L371.5,276.6z M803.1,515.9
				c10.5,2,21.5,1.5,32,3.2c3.7,0.6,15,2.7,18.2,0.5c5-3.3,6.8-15.6,9.2-21.3c4.2-10,10.1-18.8,14.1-29
				c16.3-41.7,31.4-83.6,51.1-123.9c-7.5-2-13.3-2-20.9-3c-7.9-1.1-15.1-5.7-22.7-7.7c-7.2-1.9-14.7-1.4-21.8-3.6
				c-3.9-1.2-7.3-3.9-11.1-4.9c-6.2-1.5-13.3-2.4-17,1.6c-3.8,4.1-5.1,15.5-7.1,20.9c-5.4,14.3-11.8,28-16.3,42.6
				c-4.1,13.2-8,26.2-11.6,39.5c-3.8,14-11.4,25.6-16,39c-3.5,10.2-6.8,20.6-7.3,31.5c-0.5,10.6-2.1,11.3,8.6,13
				C789.7,515.1,798,518.3,803.1,515.9L803.1,515.9z M1493.9,1012.4c2.7,1.3,5.3,1.1,7.7-0.5c-23.7-10-46.8-23.9-71.5-30.8
				c-23.2-6.4-45.8-14.1-68.1-22.1c-18.2-6.4-34.5-11.5-50.9-22.8c-10-6.9-18.8-14.6-25.7-24.7c-7.6-11.2-9.3-27.2-17.6-37.2
				c-11.1,12.2-24.2,21.5-37.4,31.2c-4.6,3.4-15.5,10.7-17.1,15.9c-2,6.6,3.3,12.9,5.9,19.5c6.7,17,9.9,34,13.6,51.8
				c1.5,7.1,4.6,17.8,10.4,20.7c5.3,2.7,20.7,0.7,27.3,0.2c34.5-2.6,68.3-5.3,103-2.9C1412.7,1013.4,1454.7,1015.3,1493.9,1012.4
				L1493.9,1012.4z M1562.7,696.9c6.3,0,12.4-0.8,18.6-0.8c-3.6-16.8,4.8-38.6,7.8-55.4c3.3-18.8,5.9-38.2,8.1-57.1
				c4.7-39.9,6.8-79.2,6.9-119.4c0.1-38.9,7.1-74.4,17-111.7c10.6-40.1,28.1-76.2,42.5-114.9c-15.8,8.4-24.6,27.9-32.9,42.8
				c-10.5,18.9-17.5,39.8-21.8,61c-8.3,40.9-17.3,82-26.9,122.8c-9.9,42.5-15.8,85.5-27.2,127.6c-5.6,20.6-13.1,45.9-13.5,67.1
				c-0.2,8.8-2.8,27.2,1.2,34.8C1546.3,700.9,1554.5,697.6,1562.7,696.9L1562.7,696.9z M617.3,644.1c-0.3,4.4-0.6,8.5-1.4,12.8
				c8.7-0.1,19.7-9.1,27.1-13.1c9.1-4.9,18.1-10.4,27-15.3c17.1-9.6,36.5-15.8,54.8-23.7c21-9,40.3-19.9,60.4-30.8
				c7-3.8,57.4-25.6,56.6-31.6c-11.1-0.4-22.1-0.7-33.2-1.1c-9.5-0.3-24.2,1.8-33.3-1.1c-5-1.6-10.6-7.5-12.4-12.2
				c-1.9-4.6,2.3-25.7-0.1-27c-12.4,12.6-20.2,29.4-31.2,43.1c-12.2,15.1-28,23.9-45.5,31.9c-19.2,8.8-39.2,15.7-58.8,23.3
				c-8.3,3.2-8.1,5-8.9,14.1C617.6,623.6,617.6,633.9,617.3,644.1L617.3,644.1z M1617.2,1026.4c20.9,2.2,42.2,1,63.3,2.7
				c7.6,0.6,18.3,1.6,10.6,11.8c-4.8,6.5-20.4,4.4-27.4,4.8c-18.9,1.2-38.9,0.6-57.9,0.3c-4-0.1-8.4-1.2-12.4-1
				c-4.7,0.3-10.2,3.7-14.5,3.6c-2.6,0-3.6-2.8-5.8-3c-4.9-0.6-9.8-1-14.8-1c-74.9,0-148.7-1.5-223.4-1.6c-35.7,0-72-0.7-107.7-2.3
				c-7.5-0.4-50.2,1.2-49-12.3c0.6-7,14.5-7.9,19.6-8.7c3.8-0.5,7.7-0.5,11.5-0.7c10-0.5,14.4,1.9,12.3-9.1
				c-8-41.6-22.4-76-53.1-106c-25.1-24.5-55.4-46.7-83.8-67.1c-34.6-24.8-62.6-50.9-83.1-88.9c-12-22.2-22-44.8-28.2-69.4
				c-2.2-8.8-2.3-18.9-5-27.4c-2.1-6.5-6.8-11.1-9.6-17.9c-34.4,57.4-79.9,105.5-121.7,157.2c-20,24.7-42.7,48.2-66.6,69.7
				c-7.1,6.4-13.7,13.1-20.3,19.9c-5.5,5.8-14.3,10.9-19,17.2c-4.5,6.1-3.4,5.8,3.4,10.7c9,6.4,18.9,11.8,28.1,18
				c14.6,10,30.6,18.5,43.7,30.5c14.1,13,26.5,28.1,38.9,42.8c8.2,9.8,19,22.4,21.1,34.7c0.7,4.1,3.3,14.2-0.1,17.2
				c-2.9,2.6-2.6,1.6-6.3,0c-4.8-2-6.2-6.8-12-9c-14.9-5.7-33-3.8-48.6-3.8c-15.6-0.1-31.2,1.7-46.8,1.6
				c-35.5-0.1-70.2,2.7-105.7,4.3c-37.7,1.6-75.9-2.3-113.4-1.7c-27.8,0.4-56.4-1.7-85-0.1c-14.7,0.8-29.2-1-43.5-1.3
				c-18.8-0.3-38.1,2.3-57,2.6c-31.1,0.6-61.8,0.6-93.1,1.3c-67.3,1.6-134.2,3.3-201.6,4.3c-9,0.1-18.8-0.2-27.7,0.8
				c-9.4,1.1-4.6,3.1-11,6.5c-18.1,9.5-13.9-25.7-13.5-32.6C3,987.6,12.5,951.2,23.8,916c10.7-33.4,19.4-68.3,28.5-102.4
				c10-37.3,22.9-73.1,34.7-110.1c12.1-37.9,21.9-77.2,43.8-110.8c5-7.6,10.1-15.9,18.2-20.7c9-5.4,9.4-2.2,9.4-12.1
				c0-9.3,0.6-21.8-1.6-30.7c-2-8-1.7-3.3-6.2-9c-3.6-4.7-7.5-7.9-10.1-13.6c-16,16.3-52.8,7.7-68.3-4c-19-14.3-33.4-38.5-38.7-61.6
				c-4.3-18.5,1-53.8,21.4-62.7c10-4.3,46.7-7.6,48.1-21.8c0.8-7.3-12.2-17.6-15.1-23.8c-5.5-11.6-10.8-27.1-12.4-39.8
				c-3-24.9,8.3-52.7,26.3-69.5c33-30.8,91.1-46.6,133.5-27.1c-9-34.3-14.4-63.8-9.9-99.5c3.9-30.7,22-47.9,46.9-63.2
				C315,7.5,372.9-2.8,421.5,4.8c11.1,1.7,21.7,5.4,31.9,8.4c14.9,4.3,32.7,2.9,46.7,9.8c10.2,5,17.9,15.1,26.9,21.8
				c10.4,7.8,19.1,19.5,26.4,30.3c15.5,23.1,9.4,65.9-3.5,89.1c-2.8,5-6.2,9.2-10.8,12.5c-4.8,3.5-12.1,4.6-14.6,9.2
				c-6.3,11.7-0.2,37.1,0.6,49.8c1,14.7-6.5,25.8-23.1,26.9c-9.7,0.7-10-4.9-14.6,6.6c-3,7.5-5.7,15.6-10,22.5
				c-8.9,14.1-25.2,12.7-40.1,12.4c-17.2-0.4-34.2-3.2-51.4-4.9c4.5,14.6,17,25.9,24.8,38.9c10.5,17.6,16.8,32.1,18.6,52.6
				c1.3,15.7-1.5,28.1-12.3,39.8c-4.5,4.8-8.4,5.1-7.3,10.7c0.7,3.4,6.6,9,8.7,11.7c5.5,7.2,11.9,13.8,16.8,21.5
				c18.7,29.6,24.2,74.6,24.3,109.1c0,1.6,0.8,4.9,0.1,6.6c-0.5,1.2-4.4,5-4.5,5.4c-0.8,4.4,3.5,12,10.3,12.8
				c7.1,0.8,20.1-5.1,26.8-7.1c10.6-3.1,21.4-5.4,31.9-8.6c17.1-5.2,34-9.3,51.4-13.4c7.8-1.8,15.7-3.4,23.6-5.1
				c9-1.9,13.1-5.7,17.7,3.4c4,7.8,1.5,9.2,11.1,5.3c9.5-3.9,18.9-8.8,28.2-13.2c16.4-7.8,36-14.7,50.2-26.2
				c23.6-19.2,32.4-49.7,55-70.1c6.3-5.7,10.1-5.8,14-13.6c4.3-8.4,6.5-19.2,8.7-28.2c3.9-15.8,6.7-31.7,10.3-47.5
				c4.4-19.7,14-37.5,21-56.3c2.7-7.3,4.1-16.6,8.5-23.2c1.2-1.7,3.4-2.7,4.3-4.2c3.1-5,3.1-6.3,3.9-12.3
				c3.8-27.9,20.4-13.2,38.6-6.8c7.7,2.7,44,20.2,30.1,31.8c16.6,4.8,43.1,2.2,42.9,25.9c-0.1,12.2-7.4,25.2-11.3,36.5
				c-3.5,10.1-6.8,20.2-10.3,30.3c-7.7,22.1-17.1,43.5-24.6,65.7c-3.4,10.1-6.3,20.4-11,30c-4.2,8.4-14.4,17.7-16.1,26.9
				c44.1-18.8,84.9-46,134.3-44.3c21.6,0.8,41.3,9.8,53.2,28.9c15,23.8,24.8,50.5,39.5,74.6c53.2,87.5,116.7,167,175.2,250.8
				c4.5,6.4,10.3,12.5,11.8,20.5c1,5.2-1,10.4,0.3,15.4c2.5,10.4,15.3,23.3,24,29.3c16.6,11.4,43.6,27.5,64.3,26.1
				c-13-31.2-12.8-65.5-12.2-98.8c0.6-31.7,4-63.1,8.1-94.4c0.9-7.1,1.7-13.7,3.8-20.5c2.3-7.9,5.5-7.1-1.5-14.2
				c-10.8-10.9-23.6-19.9-34.5-30.9c-23.5-23.9-47.6-42.6-66.1-71.1c-17.6-27.1-36.2-55.1-49.2-84.8c-13.4-30.6-18.8-63.3-25.4-95.7
				c-2.7-13.1-12.5-27.8-10.6-41.5c2.5-17.3,10.5-4.7,13.8,4.6c10,28.5,33.4,54,52.8,76.9c20.9,24.8,46.6,45.5,68.4,69.5
				c23.8,26.2,40.1,56.3,61.3,84.2c0-34.7-11.8-70-16.7-104.3c-4.3-30.2-5.6-60.5-8.3-90.8c-6.1-68.9-0.8-139.8,7.8-208.2
				c4.1-32.5,1.8-64.2,1.9-96.8c0-10.4-4.3-34.3,1.2-43.5c10.5-17.6,16.6,20.9,17.1,26.7c3.2,34.2-2.5,68.1,0.4,102.2
				c3,35.6,9.6,70.2,15.2,105.4c6.1,38.1,16,75.4,25.4,112.8c9.9,39.3,18.3,79.3,29.3,118.3c3-12.2-1.2-27.3-2-39.7
				c-1.2-17.8-3.5-35.7-3.7-53.6c-0.3-28.5-0.5-57.5,1.1-85.9c1.6-28,1.1-57.3,9.7-84.2c4.1-12.8,10-25.3,15.9-37.3
				c7.2-14.9,9.8-29.3,13.7-45.1c3.4-13.5,8.4-26.7,10.7-40.5c1.4-8.6,5.4-33.9,15.2-14.7c5.7,11.1,3.2,27.7,3.4,39.6
				c0.2,15.3-2.1,30.3-2.5,45.5c-0.7,30-1.2,59.9-3.4,89.8c-2.3,31.4-0.3,59.5,5.7,90.5c6.5,33.9,8.5,67.8,11.8,102.1
				c1.7,17.7,4.7,35.3,6.1,53c0.8,9.4-3.1,36.3,3.6,43c0.7-16.3,5.3-32.5,8.8-48.4c4.2-18.8,5.9-38.5,9-57.5
				c5-30.8,14.7-60.3,21.1-90.8c13.2-62.9,24.2-143.7,79.6-184.8c7.2-5.4,15.2-9.4,23-13.8c4.4-2.5,11-9,16.1-10.1
				c5.5-1.2,7.8-0.3,10.1,6.1c3.1,9-2.6,13.1-7.9,19.6c-18.5,22.5-26.4,51.4-37.8,77.8c-26.2,60.5-37.7,124.2-37.9,189.6
				c-0.1,34.2-2.4,67.2-6.1,101.2c-3.9,36.6-9.1,75.3-20.2,110.5c11.2,2.5,23.3-1.2,26.3,11.7c0.7,3.2-0.6,6.9,0.2,11.1
				c0.8,4,2.7,8,3.9,12c2.4,8.2,3.6,16.3,4.7,24.7c4.4,32.5,12,63.4,12.8,96.4c0.7,30.5-5.2,61.4-10.7,91.2
				c-5.5,30.1-21.4,55.8-33.9,83C1606.4,1026.2,1611.8,1026.3,1617.2,1026.4L1617.2,1026.4z"/>
			<path id="ink-layer_00000074405042279903147970000002912665252611583118_" class="st3" d="M909.3,957.2
				c-5.9,1.7-34.6,4.8-34.6,13.8c0,5.4,28.6,5.3,33.7,5.9C908.7,970.3,909,963.7,909.3,957.2 M972.5,1019.1
				c16.5,3.1,38.9-1.3,49.4-15.8c4.9-6.8,7.3-17.1,8.9-25.2c1.5-7.7,6.3-27,3-34.3c-4-8.9-41.9,0.4-52.9,1.4
				c-19.3,1.8-39.2,2-58.5,0.7c0,19.9-1,39.3,10.7,56.4C941.7,1014.7,957.5,1017.7,972.5,1019.1 M969.2,1043.7
				c-17.9-6.6-36.8-2.3-48.4-21.5c-3-4.9-5.5-10.1-7.2-15.6c-0.9-2.4-1.6-4.8-2-7.3c0.9-5.4-1.1-6.9-5.9-4.5
				c-9.5-1.8-19.9,4.7-29.9,2.8c-24.3-4.7-19.9-39.4-3.6-51.5c3.2-2.4,6.4-3,10.1-4.2c8.1-2.6,12.5,0.3,19.9-0.4
				c6-0.6,7.7-6.9,14.1-9.7c4.2-1.8,10.1-1.7,14.5-1.9c23.2-1,46.6-0.9,69.9-2.5c10.9-0.7,22.7,1,33.4-0.8c5-0.9,4.3-4.2,9-1.3
				c4.9,3,2.8,14.2,2.5,18.7c-1.4,25.8-3,53.4-16.8,76C1016.2,1040.6,991.4,1042.7,969.2,1043.7"/>
			<path id="ink-layer_00000145052074880438229820000002918846883088257969_" class="st3" d="M22.3,1050.8
				c5.8-0.1,11.5-0.1,17.3-0.2C33.8,1050.7,28.1,1050.8,22.3,1050.8"/>
			<path id="ink-layer_00000136374934625390943100000013317128368982873735_" class="st3" d="M1624.1,501c0-5.5,0-11.1,0-16.6
				C1624,489.9,1624.1,495.5,1624.1,501"/>
			<path id="ink-layer_00000112618548983007327230000011244678306057688498_" class="st3" d="M156.7,523.8c0,5.4,0,10.8-0.1,16.2
				C156.7,534.5,156.7,529.1,156.7,523.8"/>
			<path id="ink-layer_00000047027835712895750860000006587154688950736286_" class="st3" d="M636.2,1044.7c4.6,0,9.2,0,13.7,0
				C645.4,1044.7,640.8,1044.7,636.2,1044.7"/>
			<path id="ink-layer_00000160174914156069277140000001490367470932066205_" class="st3" d="M357.6,1043.6c4.6,0,9.2,0,13.7,0
				C366.7,1043.6,362.1,1043.6,357.6,1043.6"/>
			<path id="ink-layer_00000064329146156493005350000006485641675707732884_" class="st3" d="M1360.9,819.5
				c-0.2,3.6-0.4,7.3-0.6,10.9C1360.5,826.8,1360.7,823.1,1360.9,819.5"/>
			<path id="ink-layer_00000014619476098874376470000009630875465275598487_" class="st3" d="M1617.2,1026.4
				c-3.5,0-7.1-0.1-10.6-0.1C1610.1,1024.8,1613.6,1024.8,1617.2,1026.4"/>
			<path id="ink-layer_00000182507807696609827770000005959178475873234345_" class="st3" d="M1302.3,1042.5c2.5,0,5.1-0.1,7.6-0.1
				C1307.4,1042.4,1304.8,1042.4,1302.3,1042.5"/>
			<path id="ink-layer_00000106864653619614950780000012025101602165792699_" class="st3" d="M1622.7,546c0.1-2.8,0.1-5.5,0.2-8.2
				C1622.8,540.5,1622.8,543.2,1622.7,546"/>
			<path id="ink-layer_00000016782265880001135520000003102273282484338614_" class="st3" d="M1384.7,197.7
				c-0.2-2.8-0.4-5.7-0.6-8.5C1384.2,192,1384.5,194.8,1384.7,197.7"/>
			<path id="ink-layer_00000078030322031813675330000011441329193993576324_" class="st3" d="M1623.9,511.9c0-2.8,0.1-5.7,0.1-8.5
				C1624,506.2,1624,509,1623.9,511.9"/>
			<path id="ink-layer_00000091735822452408358900000009767880351185743007_" class="st3" d="M823.5,1039c2.3,0,4.5,0.1,6.8,0.1
				C828,1039,825.7,1039,823.5,1039"/>
			<path id="ink-layer_00000181060277556050120820000011256355065814533296_" class="st3" d="M1406.4,1043.6c2.2,0,4.4,0.1,6.6,0.1
				C1410.8,1043.7,1408.6,1043.6,1406.4,1043.6"/>
			<path id="ink-layer_00000044179079505241006220000017786628504321073830_" class="st3" d="M1645.4,843.4c-0.2-2.5-0.3-5-0.5-7.5
				C1645.1,838.5,1645.2,841,1645.4,843.4"/>
			<path id="ink-layer_00000005235290038174926180000013963663998683075465_" class="st3" d="M1605.7,1046c1.8,0,3.6,0,5.4,0
				C1609.3,1046,1607.5,1046,1605.7,1046"/>
			<path id="ink-layer_00000083783240226650782410000006668837162566929847_" class="st3" d="M1360.3,1043.7c1.8,0,3.6-0.1,5.3-0.1
				C1363.9,1043.6,1362.1,1043.7,1360.3,1043.7"/>
			<path id="ink-layer_00000068654675743327476980000005156461846192574902_" class="st3" d="M959.5,1042.3c2,0,3.9,0,5.9,0
				C963.4,1042.3,961.4,1042.3,959.5,1042.3"/>
			<path id="ink-layer_00000088115031055840458430000012558472323567994509_" class="st3" d="M506.8,1042.3c1.9,0,3.7,0,5.6,0
				C510.5,1042.4,508.7,1042.4,506.8,1042.3"/>
			<path id="ink-layer_00000004545418815572534230000015690340783981620156_" class="st3" d="M396.7,1042.6c1.9-0.1,3.8-0.2,5.7-0.3
				C400.5,1042.4,398.6,1042.5,396.7,1042.6"/>
			<path id="ink-layer_00000123410447220328067100000016580000633071327158_" class="st3" d="M923.9,317.7c-2.8-0.2-5.7-0.5-8.5-0.7
				C918.2,317.2,921.2,315.5,923.9,317.7"/>
			<path id="ink-layer_00000150792904285434091360000003914145734021961916_" class="st3" d="M1645.7,1027.4
				c-2.8-0.3-5.6-0.6-8.4-0.8C1640.1,1026.9,1642.9,1027.1,1645.7,1027.4"/>
			<path id="ink-layer_00000134214043599975777290000001490774352990556562_" class="st3" d="M1450.9,334.9
				c-0.2,2.4-0.4,4.9-0.6,7.3C1450.6,339.8,1450.7,337.3,1450.9,334.9"/>
			<path id="ink-layer_00000163043587904926843580000007992587441254709436_" class="st3" d="M1624.7,436.9c0.2-2.3,0.4-4.6,0.6-6.9
				C1625,432.2,1624.8,434.5,1624.7,436.9"/>
			<path id="ink-layer_00000119801163692976826970000009535639737617115306_" class="st3" d="M1449.8,372.8
				c-0.2,2.4-0.4,4.9-0.6,7.3C1449.4,377.7,1449.6,375.3,1449.8,372.8"/>
			<path id="ink-layer_00000131349155117699619090000013033204001661380010_" class="st3" d="M1623.5,530.4c0-2.4,0-4.7-0.1-7.1
				C1624.9,525.7,1624.9,528.1,1623.5,530.4"/>
			<path id="ink-layer_00000101076654245959363460000013192113554475612578_" class="st3" d="M1361,869.3c0,2.4,0,4.7-0.1,7.1
				C1359.3,874,1359.7,871.7,1361,869.3"/>
			<path id="ink-layer_00000099642807972182055800000011280759867675029949_" class="st3" d="M1538.9,595.7
				c-0.3-2.4-0.5-4.8-0.8-7.2C1538.4,590.9,1538.6,593.3,1538.9,595.7"/>
			<path id="ink-layer_00000059297932169020643000000006054202360840585344_" class="st3" d="M65.4,376c-1.9,2.4-4.4,0.8-6.6,1.1
				C61,376.7,63.2,376.3,65.4,376"/>
			<path id="ink-layer_00000018920339786232503960000015324188792631222962_" class="st3" d="M980.8,929.1c-2.3,0-4.7,0-7,0
				C976.1,929.1,978.4,929.1,980.8,929.1"/>
			<path id="ink-layer_00000039833671788750302720000014744253667992377504_" class="st3" d="M1354.4,386c0.2,2,0.4,4,0.7,6
				C1354.8,390,1354.6,388,1354.4,386"/>
			<path id="ink-layer_00000158733476305457769660000009548794842811414950_" class="st3" d="M198.6,188.5c-2.4,0-4.7,0.1-7.1,0.1
				C193.9,187.3,196.3,186.9,198.6,188.5"/>
			<path id="ink-layer_00000077317003659774601990000017968142472962008972_" class="st3" d="M1449.8,407.2
				c-0.2,2.1-0.3,4.2-0.5,6.2C1449.5,411.4,1449.6,409.3,1449.8,407.2"/>
			<path id="ink-layer_00000060002551342254538680000008639859986291019705_" class="st3" d="M1385.3,151.2c0.2-1.9,0.4-3.8,0.5-5.7
				C1385.7,147.4,1385.5,149.3,1385.3,151.2"/>
			<path id="ink-layer_00000111907646191656376910000006156614168464251048_" class="st3" d="M1366.8,145.3
				c-0.2,2.1-0.4,4.1-0.6,6.2C1366.4,149.4,1366.6,147.3,1366.8,145.3"/>
			<path id="ink-layer_00000155142445400963906410000017380773006427892614_" class="st3" d="M345.6,7.5c-2.4,0.3-4.8,0.6-7.2,0.9
				C340.8,8.1,343.2,7.8,345.6,7.5"/>
			<path id="ink-layer_00000072973315637926547140000008376141149704411788_" class="st3" d="M172.8,190.1c-2.5,0.3-4.9,0.5-7.4,0.8
				C167.9,190.6,170.3,190.4,172.8,190.1"/>
			<path id="ink-layer_00000076567741521433769920000009944867861457141169_" class="st3" d="M1518.1,196.2c0.2-1.9,0.3-3.8,0.4-5.7
				C1518.4,192.4,1518.2,194.3,1518.1,196.2"/>
			<path id="ink-layer_00000078028845767674769130000004112788698776697750_" class="st3" d="M92.2,512.9c1.4,0,2.8,0,4.2,0.1
				C95,512.9,93.6,512.9,92.2,512.9"/>
			<path id="ink-layer_00000096021132248721337960000003945909557508082598_" class="st3" d="M1366.9,749.7
				c-0.1,2.1-0.3,4.2-0.4,6.4C1366.6,754,1366.7,751.8,1366.9,749.7"/>
			<path id="ink-layer_00000045619432529518368950000010857590580588737954_" class="st3" d="M1511.1,336.2c-0.1-2-0.1-4.1-0.2-6.1
				C1511,332.1,1511.1,334.1,1511.1,336.2"/>
			<path id="ink-layer_00000057122323709165842290000007338642762281334449_" class="st3" d="M405.8,2.7c-2.2,0-4.4,0-6.5,0
				C401.4,1.2,403.6,1.2,405.8,2.7"/>
			<path id="ink-layer_00000061466658584631676480000009990711747535058590_" class="st3" d="M988,484.7c-2.4,0.1-4.8,0.1-7.2,0.2
				C983.2,483.2,985.6,483.1,988,484.7"/>
			<path id="ink-layer_00000158712418563555240480000014920846831894393476_" class="st3" d="M1196.8,1038.9c1.4,0,2.8,0.1,4.2,0.1
				C1199.6,1038.9,1198.2,1038.9,1196.8,1038.9"/>
			<path id="ink-layer_00000101074947463912134370000011859005693289464755_" class="st3" d="M1250.1,1041.4
				c1.4-0.1,2.8-0.1,4.2-0.1C1252.9,1041.3,1251.5,1041.3,1250.1,1041.4"/>
			<path id="ink-layer_00000018959344722212988050000011410960661910194351_" class="st3" d="M415.6,1042.3c1.5,0,2.9,0.1,4.4,0.1
				C418.5,1042.4,417,1042.4,415.6,1042.3"/>
			<path id="ink-layer_00000019660044624456894940000006864851690094267822_" class="st3" d="M1644.2,819.8c-0.2-2-0.4-4.1-0.6-6.1
				C1643.8,815.7,1644,817.7,1644.2,819.8"/>
			<path id="ink-layer_00000085956272837475489620000015514593521361160613_" class="st3" d="M1451.6,478.4c0.2,1.9,0.3,3.9,0.5,5.8
				C1451.9,482.3,1451.7,480.4,1451.6,478.4"/>
			<path id="ink-layer_00000038401250893577673050000006437803363378553753_" class="st3" d="M1525.7,445.3c-0.2-2-0.5-4.1-0.7-6.1
				C1525.2,441.2,1525.5,443.3,1525.7,445.3"/>
			<path id="ink-layer_00000179619499494921365840000016910739012773117335_" class="st3" d="M427.5,1043.6c1.5,0,3,0,4.4-0.1
				C430.5,1043.5,429,1043.5,427.5,1043.6"/>
			<path id="ink-layer_00000142163072713189204660000010589820962823027349_" class="st3" d="M969.2,1043.7c1.4-0.1,2.9-0.1,4.3-0.2
				C972.1,1043.6,970.6,1043.7,969.2,1043.7"/>
			<path id="ink-layer_00000042732690231976047430000018110363856735625912_" class="st3" d="M1513.6,295.9
				c-0.1-2.1-0.1-4.1-0.2-6.2C1513.5,291.8,1513.5,293.8,1513.6,295.9"/>
			<path id="ink-layer_00000037680808449717474790000011382559329440673698_" class="st3" d="M286.5,1044.9c1.5,0,2.9,0,4.3,0
				C289.4,1044.9,288,1044.9,286.5,1044.9"/>
			<path id="ink-layer_00000021098227015265585530000002137841978315712958_" class="st3" d="M1513,1044.9c1.5,0,3,0,4.5,0
				C1515.9,1044.9,1514.5,1044.9,1513,1044.9"/>
			<path id="ink-layer_00000183932885409135352440000017357363409004381064_" class="st3" d="M1545.2,1044.7
				c1.4,0.1,2.9,0.2,4.3,0.3C1548.1,1044.9,1546.6,1044.8,1545.2,1044.7"/>
			<path id="ink-layer_00000035526024648774297230000008643770213619778689_" class="st3" d="M1558.2,1044.7c1.5,0,2.9,0.1,4.4,0.1
				C1561.1,1044.8,1559.7,1044.7,1558.2,1044.7"/>
			<path id="ink-layer_00000083795318017160530800000007495850009281445796_" class="st3" d="M1625,453.5c-0.1-2-0.2-4.1-0.3-6.1
				C1624.8,449.5,1624.9,451.5,1625,453.5"/>
			<path id="ink-layer_00000108287447581097391550000014649543705203077290_" class="st3" d="M640.6,1018c4.5-0.2,8.9-0.5,13.4-0.7
				C649.5,1017.5,645.1,1017.7,640.6,1018"/>
			<path id="ink-layer_00000098220217245899176210000018117348833584018066_" class="st3" d="M371.5,276.6c3.9,0.3,7.7,0.7,11.6,1
				C379.2,277.2,375.3,276.9,371.5,276.6"/>
			<path id="ink-layer_00000044883270380443893230000003357670224779408540_" class="st3" d="M1464.9,444.9
				c0.1,3.7,0.2,7.4,0.4,11.1C1465.1,452.3,1465,448.6,1464.9,444.9"/>
			<path id="ink-layer_00000048486753656353926840000011684442460865088693_" class="st3" d="M1544.8,1024.3c4,0.2,8.1,0.5,12.1,0.7
				C1552.8,1025.2,1548.7,1026.4,1544.8,1024.3"/>
			<path id="ink-layer_00000060019695836049335590000014494478067326049168_" class="st3" d="M1520.8,587.3c0-3.5,0.1-7,0.1-10.6
				C1520.9,580.2,1520.9,583.8,1520.8,587.3"/>
			<path id="ink-layer_00000049223942516982991140000011431304945914877069_" class="st3" d="M1510.5,698c3.5,0,7.1,0.1,10.6,0.1
				C1517.6,698.1,1514,698.1,1510.5,698"/>
			<path id="ink-layer_00000139993228339366058850000011065364529533983620_" class="st3" d="M617.6,636.1c-0.1,2.7-0.2,5.4-0.3,8
				C617.4,641.4,617.5,638.7,617.6,636.1"/>
			<path id="ink-layer_00000071522493513421070350000014241332889799166353_" class="st3" d="M1569.5,522.3c-0.1,2.7-0.3,5.3-0.4,8
				C1569.2,527.7,1569.4,525,1569.5,522.3"/>
			<path id="ink-layer_00000157277154617439259640000003575885000833384600_" class="st3" d="M1493.9,1012.4
				c2.6-0.2,5.2-0.3,7.7-0.5C1499.7,1013.4,1497.7,1013.6,1493.9,1012.4"/>
			<path id="ink-layer_00000096749848319928458180000000802350217666976417_" class="st3" d="M1476.6,663c0.2,2.9,0.4,5.8,0.5,8.6
				C1476.9,668.8,1476.8,665.9,1476.6,663"/>
			<path id="ink-layer_00000138564364679221756290000007469626836417634473_" class="st3" d="M511.8,208.3c0-2.8,0.1-5.6,0.1-8.3
				C511.8,202.7,511.8,205.5,511.8,208.3"/>
			<path id="ink-layer_00000016051117544148413770000008974796147184108188_" class="st3" d="M1479.7,698.6l9.6-0.2
				C1486.2,699.9,1483,700,1479.7,698.6"/>
			<path id="ink-layer_00000075151966209453827860000017073028172442049187_" class="st3" d="M1568.4,719.1c-2.3,0-4.5,0-6.8,0.1
				C1563.9,719.2,1566.2,719.1,1568.4,719.1"/>
			<path id="ink-layer_00000144326183828000035450000004886376437295381183_" class="st3" d="M737.9,1013.5c3.1,0,6.3,0.1,9.4,0.1
				C744.2,1015.2,741,1015.4,737.9,1013.5"/>
			<path id="ink-layer_00000046314411969054829970000009997071588918964360_" class="st3" d="M146.5,1022.7c3.2-0.3,6.4-0.6,9.6-0.9
				C152.9,1022.2,149.7,1022.5,146.5,1022.7"/>
			<path id="ink-layer_00000137123631691619695990000007619564111495468696_" class="st3" d="M1466,468.6c0.2,2.9,0.3,5.8,0.5,8.7
				C1466.3,474.4,1466.1,471.5,1466,468.6"/>
			<path id="ink-layer_00000083065918708130483700000012514751774162850732_" class="st3" d="M448.9,283.4c2.7-1.3,5.4-1.5,8.1-0.1
				C454.3,283.3,451.6,283.3,448.9,283.4"/>
			<path id="ink-layer_00000055704346238496140580000003946249229045636267_" class="st3" d="M1378.1,502c0.2,2.4,0.4,4.9,0.7,7.3
				C1378.5,506.9,1378.3,504.5,1378.1,502"/>
			<path id="ink-layer_00000091737308598150044470000001513947935588733079_" class="st3" d="M1605,445.1c-1.4-2.4-1.3-4.8,0.1-7.1
				C1605,440.4,1605,442.7,1605,445.1"/>
			<path id="ink-layer_00000106862176993746790390000017239932534299847337_" class="st3" d="M1466.4,362.3c0,2.4,0,4.8,0,7.2
				C1466.4,367.1,1466.4,364.7,1466.4,362.3"/>
			<path id="ink-layer_00000096777293224089099910000015835378099400581762_" class="st3" d="M1562.7,696.9c2.8-0.8,5.5-2,8.3,0
				C1568.2,696.9,1565.4,696.9,1562.7,696.9"/>
			<path id="ink-layer_00000035522959855607400160000004669148446957256627_" class="st3" d="M669.2,1016.9c2.8-0.3,5.6-0.5,8.3-0.8
				C674.8,1016.4,672,1016.6,669.2,1016.9"/>
			<path id="ink-layer_00000021111414765113805190000010749659015970582177_" class="st3" d="M287.8,1016.9c2.5-1.1,5.1-1.7,7.6,0.1
				C292.8,1016.9,290.3,1016.9,287.8,1016.9"/>
			<path id="ink-layer_00000124138084836551664490000015446565889755296701_" class="st3" d="M809,1013.3c2.7-1.2,5.4-1.8,8.1,0.1
				C814.4,1013.3,811.7,1013.3,809,1013.3"/>
			<path id="ink-layer_00000099649755708227659970000017841047049206654617_" class="st3" d="M202.4,660.8c0.2,2.5,0.4,4.9,0.6,7.4
				C202.8,665.7,202.6,663.3,202.4,660.8"/>
			<path id="ink-layer_00000042719604385894540520000011049006745168370862_" class="st3" d="M835,519.1c2.7-1,5.4-1.5,8,0.1
				C840.4,519.2,837.7,519.2,835,519.1"/>
			<path id="ink-layer_00000036232310072678615050000012476740472182325143_" class="st3" d="M1465.9,592.4c0.1,2.4,0.3,4.8,0.4,7.2
				C1466.2,597.2,1466.1,594.8,1465.9,592.4"/>
			<path id="ink-layer_00000104674585498941176150000000555963332558945195_" class="st3" d="M200.7,375.4c-0.2,1.9-0.4,3.9-0.7,5.8
				C200.3,379.3,200.5,377.3,200.7,375.4"/>
			<path id="ink-layer_00000055688917929827161070000005376436330397038209_" class="st3" d="M45.3,937.1c-0.1,1.9-0.3,3.8-0.4,5.6
				C45,940.8,45.2,938.9,45.3,937.1"/>
			<path id="ink-layer_00000088848901019466588580000018218842136331933610_" class="st3" d="M1522,605.1c-0.2-1.9-0.3-3.9-0.5-5.8
				C1521.7,601.2,1521.9,603.1,1522,605.1"/>
			<path id="ink-layer_00000112602610141186093330000002049640195229956793_" class="st3" d="M1326.8,1009.6c2.4,0,4.8,0,7.2,0.1
				C1331.6,1009.7,1329.2,1009.7,1326.8,1009.6"/>
			<path id="ink-layer_00000073701773886985793420000015115354837192988310_" class="st3" d="M616.7,652.6c0.4,1.4,0.9,2.8,1.3,4.3
				C615,657.6,614.6,656.2,616.7,652.6"/>
			<path id="ink-layer_00000157289385173305585010000003635086669007043206_" class="st3" d="M795.8,515.9c2.4,0,4.9,0,7.3,0
				C800.6,517,798.2,517.8,795.8,515.9"/>
			<path id="ink-layer_00000003821087196379500320000014195399338962989750_" class="st3" d="M203.8,672.5c0.1,2.2,0.2,4.3,0.2,6.4
				C203.9,676.8,203.9,674.6,203.8,672.5"/>
			<path id="ink-layer_00000072255620290830101790000000596763989974962323_" class="st3" d="M229.5,1019.2c2.3,0,4.7,0,7,0
				C234.1,1019.2,231.8,1019.2,229.5,1019.2"/>
			<path id="ink-layer_00000136407415333339676610000005906986677338894764_" class="st3" d="M1384,695.1c0.1,2,0.2,4,0.3,5.9
				C1384.2,699.1,1384.1,697.1,1384,695.1"/>
			<path id="ink-layer_00000118375419431334510550000000905149411063063997_" class="st3" d="M179.7,1021.6c2.3-1.5,4.6-1.4,6.9,0
				C184.4,1021.6,182,1021.6,179.7,1021.6"/>
			<path id="ink-layer_00000000927655448092700070000012039622775252699555_" class="st3" d="M240.4,347.7c0.1,2,0.2,4,0.4,6.1
				C240.6,351.8,240.5,349.8,240.4,347.7"/>
			<path id="ink-layer_00000052794922905495585930000016361872298858700418_" class="st3" d="M167.8,1021.9c2.4,0,4.8,0,7.2,0
				C172.5,1023.5,170.1,1023.6,167.8,1021.9"/>
			<path id="ink-layer_00000103233258806632758940000017577177351380456084_" class="st3" d="M1493.5,316c0-2.1,0-4.1,0.1-6.2
				C1493.5,311.9,1493.5,314,1493.5,316"/>
			<path id="ink-layer_00000022538486040010272870000014459514542595877775_" class="st3" d="M394.3,280.1c2.3,0.3,4.6,0.6,6.9,0.9
				C398.9,280.7,396.6,280.4,394.3,280.1"/>
			<path id="ink-layer_00000098212123101646652910000009861755316341482171_" class="st3" d="M192.2,457.3c0,1.9,0.1,3.8,0.1,5.7
				C192.3,461.1,192.3,459.2,192.2,457.3"/>
			<path id="ink-layer_00000162354144620224844320000007896210482240307864_" class="st3" d="M1508.9,457c-0.1-2-0.3-3.9-0.4-5.8
				C1508.6,453.1,1508.7,455.1,1508.9,457"/>
			<path id="ink-layer_00000097462138429647022880000003238375812406135726_" class="st3" d="M974.7,1019.6c2.8,0.3,5.7,0.5,8.5,0.8
				C980.4,1020.1,977.6,1019.8,974.7,1019.6"/>
			<path id="ink-layer_00000018216470362063816960000001855432544791088778_" class="st3" d="M965.3,946.4c-1.5,0-3.1,0-4.6,0.1
				C962.2,946.5,963.8,946.5,965.3,946.4"/>
			<path id="ink-layer_00000107558508019414203320000011657282066358952887_" class="st3" d="M965.4,1018.4c2.4,0.2,4.7,0.5,7.1,0.7
				C970.2,1018.9,967.8,1018.7,965.4,1018.4"/>
			<path id="ink-layer_00000173880173754682575860000010078076331635045300_" class="st3" d="M538.9,858.9
				c3.1,17.4-24,34.5-26.1,9.7c-0.8-9.1,5.3-15.4,12.1-21C534.4,839.7,539.8,847.3,538.9,858.9"/>
			<path id="ink-layer_00000036930448603151614890000017148566192891559583_" class="st3" d="M240.4,646.3
				c6.4,2.6,55.1,18.5,29.8,26.5c-6.7,2.1-16.8,2.4-22.6-1.3C240.6,667,233.5,653.8,240.4,646.3"/>
			<path id="ink-layer_00000176739917724964977030000000665703313309103767_" class="st3" d="M252.4,410.4
				c16.5-1.9,31.8,25.2,11.4,24.4C248.9,434.1,229,410.4,252.4,410.4"/>
			<path id="ink-layer_00000029764482832338235400000012512017214764987069_" class="st3" d="M311.6,477c13.8,12.1-11.8,39-22,28.6
				c-5.2-5.3-0.4-16.8,3.9-21.3C297.9,479.7,305.7,478.8,311.6,477"/>
			<path id="ink-layer_00000176756405143521424080000018354017397954773383_" class="st3" d="M352.7,789.4c-8.2,1.3-44,13-36.5-8.3
				c2.9-8.1,10.8-5.7,18.1-5.3C346,776.4,352.7,775.8,352.7,789.4"/>
			<path id="ink-layer_00000011748384160685889210000001540920331788353454_" class="st3" d="M329.1,844.2
				c12.2,6.5-5.6,43.1-15.8,35.3C299.3,868.7,318.5,847.5,329.1,844.2"/>
			<path id="ink-layer_00000081648231731531611940000009548009784532921728_" class="st3" d="M382.3,814.8
				c5.9-2.4,33.9,24.5,23.3,32c-5.5,3.8-15.8-2.7-19.1-6.7C380.3,832.7,379.8,823.5,382.3,814.8"/>
			<path id="ink-layer_00000134221070102010572860000014644318173635195323_" class="st3" d="M220.8,594.8c6.1,1,16.5,1.3,16.9,9.8
				c0.3,7.5-9.1,9.9-15.7,10.5c-6.9,0.6-15.9-1.3-16.1-10C205.9,595.9,220.6,596.5,220.8,594.8"/>
			<path id="ink-layer_00000091723763079060908820000012642684925970920873_" class="st3" d="M370.5,965.8
				c6.5,3.9,36.6,18,23.7,28.2c-4.8,3.8-19.5-4.1-22.8-8.1C367.4,981.2,363.6,970,370.5,965.8"/>
			<path id="ink-layer_00000132801831095933575860000006847308895179343778_" class="st3" d="M454.3,863.3
				c-0.9-15.6,25.4-21.8,19.9,0.3c-1.5,6.2-3,15.7-10.7,16.1C454.3,880.2,454,869.4,454.3,863.3"/>
			<path id="ink-layer_00000010313230086976929840000005443803099071427995_" class="st3" d="M373,592.3
				c0.2,11.8-22.5,22.3-22.7,3.5C350.2,579,373.9,574.1,373,592.3"/>
			<path id="ink-layer_00000059283846106923232390000010729265835754986625_" class="st3" d="M358,530.7c5.6,1.8,13,2.7,13.5,9.8
				c0.5,7.5-6.5,10.8-12.7,10.4c-5.1-0.3-12.8-4.2-13.7-9.7C343.7,533,351.7,532.5,358,530.7"/>
			<path id="ink-layer_00000044866223259460127900000010134678387726211257_" class="st3" d="M254.2,747.2
				c-0.1-9.8,19.5-21.5,23.1-10.2c1.2,3.6-8.1,19.9-11.1,21.1C258,761.3,256.9,753.8,254.2,747.2"/>
			<path id="ink-layer_00000171689820233338609270000003515179936290626743_" class="st3" d="M414.5,909.6
				c-6.6,5.9-26.4,22.5-25,0.2C390.5,895.6,416.2,896.3,414.5,909.6"/>
			<path id="ink-layer_00000162327289145161675060000004639285022811104172_" class="st3" d="M737.5,973.3
				c2.2-9.4,33.2,6.9,22.8,18.7c-3.5,4-12.6,0.4-16-2C737.3,985.4,737.2,981.1,737.5,973.3"/>
			<path id="ink-layer_00000170260900925820991080000004451248496023992991_" class="st3" d="M564.7,772.6
				c1.2-4.2,2.6-11.6,6.5-14.2c7.2-4.8,13.5,2.5,13.5,10.1C584.7,782.8,568.4,787.3,564.7,772.6"/>
			<path id="ink-layer_00000058549493395449919200000013562211300905133982_" class="st3" d="M487.8,940c8.1,1.8,26,21.4,15.6,29.4
				C493.4,977.1,480.1,945.8,487.8,940"/>
			<path id="ink-layer_00000002365639767893863320000014814879449187071899_" class="st3" d="M495.5,791.8
				c10.4,0.8,24.6,17.6,8.5,20.3C491.4,814.2,476.7,795.9,495.5,791.8"/>
			<path id="ink-layer_00000058557309923912609700000009362492328881230228_" class="st3" d="M589.2,869c2.6-8.7,28.3,0.6,26.8,10.3
				c-0.8,5.1-11.3,6.3-16.8,5C591.1,882.2,589,876.9,589.2,869"/>
			<path id="ink-layer_00000085221382926094227730000002690639900419800495_" class="st3" d="M286.5,380.5
				c0.2-11.3,21.9-15.9,23.5-4.5C311.4,386.3,286.2,397.3,286.5,380.5"/>
			<path id="ink-layer_00000093865330354406510500000014530568332648117947_" class="st3" d="M582,985.5c1.6-5.7,2.2-12.5,9.3-13.3
				c8.1-0.9,7.9,5.4,6.9,11.8C595.7,1001.6,585.8,1002.5,582,985.5"/>
			<path id="ink-layer_00000083785183082857903710000001353115947943312299_" class="st3" d="M238.9,515.1
				c-11.3,2.6-32.1-19.3-19.4-23.9C228.4,487.8,238.9,508.5,238.9,515.1"/>
			<path id="ink-layer_00000119106746214455661650000006092637938001256370_" class="st3" d="M383.4,684.5
				c-5.8,2.7-7.1,4.4-11.5-0.1c-3.9-3.9-3.7-14.7-0.4-18.7C384.2,650.2,383.9,678.2,383.4,684.5"/>
			<path id="ink-layer_00000145026755173405493130000012612359096394326195_" class="st3" d="M430.4,653.1
				c6,0.8,23.9,17.7,14.6,24.4C433.6,685.8,427.1,660,430.4,653.1"/>
			<path id="ink-layer_00000080914967115896100120000002961063728323910079_" class="st3" d="M560.5,657.6
				c-4.4,16.8-15.3,5.5-14.7-7.2C546.8,630,558.1,647.7,560.5,657.6"/>
			<path id="ink-layer_00000090263849651229172900000001723456097438637196_" class="st3" d="M626.8,927.8
				c7.4,3.1,17.4,31.3,6.9,32.8C621.8,962.4,625.8,933.7,626.8,927.8"/>
			<path id="ink-layer_00000055665816205466955100000011203376808103868303_" class="st3" d="M534.5,912c8.5-2.9,11.6,15,6.6,18.3
				C530.3,937.6,532.6,916.2,534.5,912"/>
			<path id="ink-layer_00000068668918457678851180000006667641386957891998_" class="st3" d="M454.3,863.3c-0.1,2.4-0.2,4.7-0.3,7.1
				C454,868.1,454.2,865.7,454.3,863.3"/>
			<path id="ink-layer_00000150811633699633817060000010080303326539570081_" class="st3" d="M737.5,973.3c-0.1,2.4-0.2,4.9-0.3,7.3
				C737.3,978.2,737.4,975.7,737.5,973.3"/>
			<path id="ink-layer_00000098198547572600057310000009991442471296851626_" class="st3" d="M589.2,869c0,2.1-0.1,4.1-0.2,6.2
				C589.1,873.1,589.1,871,589.2,869"/>
			<path id="ink-layer_00000019678552335531668800000008426694054447856529_" class="st3" d="M1525,833.5
				c17.5-0.6,37.1-7.2,54.3-5.1c4.7,0.6,15.7,1.8,8.1,8.8c-3.6,3.4-21,1.6-26.3,2.7c-32.2,6.8-68.8,11.2-101.8,10.6
				c-15.5-0.3-31-1.5-46.5-2.3c-15.4-0.8-17-7.1,0.4-9.1c18-2.1,36.6-1.3,54.7-1.3C1487,837.9,1505.9,834.8,1525,833.5"/>
			<path id="ink-layer_00000100354022026542693860000014253932866373205132_" class="st3" d="M1563.5,791.3
				c-1.7,4.8-3.2,15.8-9.6,16.6c-9.1,1-10.6-14.5-10.2-20.2c0.4-6.9,2.9-18.3,11.4-15.9C1562.2,773.7,1563,785.8,1563.5,791.3"/>
			<path id="ink-layer_00000154390119527280502370000016860162339061643450_" class="st3" d="M1508.6,787.7c1.3-5.1,2-16.7,9.3-17.1
				c8.1-0.4,10.5,11.6,10.4,17.4c-0.1,5.5-2.1,15.9-8.6,17.2C1510.9,806.9,1510.2,793.6,1508.6,787.7"/>
			<path id="ink-layer_00000122681139841998822750000009911082891832166033_" class="st3" d="M1417.3,797
				c-2.6,6.2-4.4,14.7-12.5,10.5c-6.3-3.3-7.2-16.4-6-22.4c1.2-6.2,3.8-13.4,11-10.6C1418,777.7,1417.2,790.2,1417.3,797"/>
			<path id="ink-layer_00000077303184892421360580000001808494995809405871_" class="st3" d="M1486.5,791.3
				c-7.8,23.6-22,7.6-16.6-10C1475.5,762.9,1485.7,780.8,1486.5,791.3"/>
			<path id="ink-layer_00000028299453051962287530000001795853468999473059_" class="st3" d="M1448.6,792.4
				c-2.2,4.1-4.5,13.1-10.3,12.2c-7.1-1.2-7.4-14.9-6.6-20c0.7-4.5,2.7-11.9,8.7-11.8C1449,772.9,1448.4,787,1448.6,792.4"/>
			<path id="ink-layer_00000030457323516985729660000010450181551246489785_" class="st3" d="M1603.7,796.9
				c-5.8,13-13.8,1.8-11.2-7.4C1596.2,775.8,1603.3,788,1603.7,796.9"/>
			<path id="ink-layer_00000065033577464666518010000012439188335396498594_" class="st3" d="M1461.9,837.9c-6.3,0-12.6,0-19-0.1
				C1449.3,836.7,1455.6,836.2,1461.9,837.9"/>
			<path id="ink-layer_00000029726503523348789420000011676562142409607858_" class="st3" d="M1587.5,828.4c-5.5,0-11,0.1-16.4,0.1
				C1576.6,826.9,1582,826.8,1587.5,828.4"/>
			<path id="ink-layer_00000044899890492274195860000001750910958628147860_" class="st3" d="M1525,833.5c-4.4,0.3-8.8,0.6-13.2,0.9
				C1516.2,834.1,1520.6,833.8,1525,833.5"/>
			<path id="ink-layer_00000182514832646395594400000010575827781161196735_" class="st3" d="M1417.3,797c0-3.1-0.1-6.3-0.1-9.4
				C1418.8,790.7,1418.7,793.8,1417.3,797"/>
			<path id="ink-layer_00000080167514354887700820000011731554222245854123_" class="st3" d="M1451.7,850.6c2.5,0,5.1,0,7.6,0.1
				C1456.7,850.6,1454.2,850.6,1451.7,850.6"/>
			<path id="ink-layer_00000165198583229132503470000010559849572701669511_" class="st3" d="M1408.9,848.3c2.6,0,5.2,0,7.7,0
				C1414.1,848.3,1411.5,848.3,1408.9,848.3"/>
			<path id="ink-layer_00000008854748952085588770000008266309331343868294_" class="st3" d="M1430.1,838.2
				c-3.6,0.3-7.2,0.6-10.8,0.9C1422.9,838.8,1426.5,838.5,1430.1,838.2"/>
			<path id="ink-layer_00000114065052810292456600000017258753696867727295_" class="st3" d="M1478.5,837.9c-3.5,0-7.1,0-10.6,0
				C1471.5,836.4,1475,836.4,1478.5,837.9"/>
			<path id="ink-layer_00000063610355202149486840000017451096033478595253_" class="st3" d="M1448.6,792.4
				c-0.1-3.3-0.2-6.6-0.3-9.8C1448.4,785.9,1448.5,789.1,1448.6,792.4"/>
			<path id="ink-layer_00000157288655839725615830000005299415665915332780_" class="st3" d="M1398.7,785c0,3.2,0,6.4-0.1,9.6
				C1398.7,791.4,1398.7,788.2,1398.7,785"/>
			<path id="ink-layer_00000103261371385080037120000014458479942575643533_" class="st3" d="M1545.1,832.3
				c-3.1,0.3-6.3,0.6-9.4,0.8C1538.8,832.9,1542,832.6,1545.1,832.3"/>
			<path id="ink-layer_00000109006283395151506760000001548847167466008474_" class="st3" d="M1603.7,796.9
				c-0.1-2.8-0.2-5.6-0.3-8.4C1603.5,791.4,1603.6,794.1,1603.7,796.9"/>
			<path id="ink-layer_00000124141165550502512330000017380746291455798402_" class="st3" d="M1470.6,850.7c2.2,0,4.4-0.1,6.5-0.1
				C1474.9,850.6,1472.7,850.6,1470.6,850.7"/>
			<path id="ink-layer_00000175309143030578398370000017642822238986974094_" class="st3" d="M1563.5,791.3c-0.2-2-0.4-4-0.6-6
				C1563.1,787.2,1563.3,789.2,1563.5,791.3"/>
			<path id="ink-layer_00000101825861234050804450000013919732440989000853_" class="st3" d="M1486.5,791.3
				c-0.1-2.1-0.3-4.1-0.4-6.2C1486.2,787.1,1486.3,789.2,1486.5,791.3"/>
			<path id="ink-layer_00000011742371365641543340000001737499007439215283_" class="st3" d="M363.5,184.7
				c-8.6-2.2-10.2-14.3-8.8-21.7c1.6-3.6,3.1-7.1,4.7-10.7c-0.6-1.3-1.2-2.6-1.8-4c0.8-7.3-1.2-10.5,7.2-7.6
				C380.5,146.4,383,184.2,363.5,184.7"/>
			<path id="ink-layer_00000016785511377769444470000007499752614781947294_" class="st3" d="M490.3,161.5
				c7.1-0.6,19.9,7.7,12.8,15.6c-4.4,4.9-18.7,2.6-24.5,3.6c-7.8,1.4-15.8,3.2-11.7-8.4C470.2,163.2,482,161.2,490.3,161.5"/>
			<path id="ink-layer_00000072275922821501474400000004764601658900902821_" class="st3" d="M482.9,216.1c-7.2-5.7-4-31.9,6.9-27.2
				C501,193.7,488.9,212.3,482.9,216.1"/>
			<path id="ink-layer_00000005966880055770304460000017204810015107425461_" class="st3" d="M354.7,163.1c0,2.8,0,5.5,0,8.3
				C353.2,168.5,353.3,165.8,354.7,163.1"/>
			<path id="ink-layer_00000119109990137857266570000015752245342268282800_" class="st3" d="M363.5,184.7c1.5,0,2.9-0.1,4.4-0.1
				C366.4,184.6,365,184.7,363.5,184.7"/>
			<path id="ink-layer_00000012461915046160989660000010341526229284057000_" class="st3" d="M1248.4,938.4
				c-0.7,11.9-13.5,3.1-12.5-4.9C1237.5,919.1,1245.7,933.4,1248.4,938.4"/>
		</g>
	</g>
</g>
</svg>
