<?xml version="1.0" encoding="utf-8"?>
<!-- Generator: Adobe Illustrator 26.4.1, SVG Export Plug-In . SVG Version: 6.00 Build 0)  -->
<svg version="1.1" id="Capa_1" xmlns="http://www.w3.org/2000/svg" xmlns:xlink="http://www.w3.org/1999/xlink" x="0px" y="0px"
	 viewBox="0 0 3871 2367" style="enable-background:new 0 0 3871 2367;" xml:space="preserve">
<style type="text/css">
	.st0{fill-rule:evenodd;clip-rule:evenodd;fill:#FFFFFF;}
	.st1{opacity:0.6;fill-rule:evenodd;clip-rule:evenodd;fill:#F4C865;enable-background:new    ;}
	.st2{fill-rule:evenodd;clip-rule:evenodd;fill:#FF5678;}
	.st3{fill-rule:evenodd;clip-rule:evenodd;}
</style>
<g id="composition-24">
	<rect class="st0" width="3871" height="2367"/>
	<circle id="Oval" class="st1" cx="3525" cy="1628" r="1332"/>
	<g id="Illustrations_x2F_sitting-reading" transform="translate(1353.000000, 296.000000)">
		<path id="Accent" class="st2" d="M1627.8,717.8c-18.8,36.7-38.6,72.4-58.6,108.5c-10.6,19.1-44.8,98-53.6,101
			c-9.5,3.2-67.8-31-84.5-37.7c-29.7-11.9-57.9-23.2-89-30.6c-34.8-8.2-69.8-14.3-105.8-11.2c-15.8,1.3-41.9,5.2-26.2-17
			c11.4-16.2,22.5-31.1,38.1-42.7c11.3-8.5,27.9-24.1,41.1-29.8c13.9-6,34.4-4.6,49.3-4.3c16.1,0.4,93.1,24.4,97.3-0.6
			c7.8,7.1,12.4,4.4,21.4,7.9c10.1,3.9,16.5,11.6,26.5,16.2c6.5,3,18.6,14.8,25.8,14.9c9.6,0.1,12.2-7.9,19.2-13.8
			c15.5-13.2,36.2-21.9,53-33.4C1596.6,734.9,1610.7,724.4,1627.8,717.8z M1458.9,427.8c-1.3,16.8,3.2,32.3,3.1,49.6
			c0,7.5-0.4,15,1.9,22.3c2.1,6.5,0.6,18.2,1.7,25c-19.2-5.8-54.9-14.5-74.5-6.6c-18.7,7.5-21.1,42.4-21.8,59.3
			c-0.5,11.5,4.7,29.3,0.8,40.4c-1.8,5.2-1.8,6.9-1.7,7.3l0,0c-0.3-0.2-1.8-0.2-7.2,3.6c-5.3,3.8-11.5,5.9-16.7,10.1
			c-9.5,7.6-11.1,16.3-15.7,27.3c-4.5,10.7-16.6,20.3-30.1,19.9c10.8-19.6,25.9-38,17.2-61c-6.5-17.4,4.9-37.8,13.9-54.3
			c3-5.5,35.9-47.4,21.3-50.4c-9.5-1.9-31.2,42.6-35.4,50.4c-11.6-7.8-16.8-17.5-7.9-29.3c6.9-9.1,15.3-16.8,22-26.2
			c10.8-15.3,21.4-33.5,34.3-47C1386.8,444.1,1426.3,427.9,1458.9,427.8z M1368.4,625L1368.4,625
			C1368.6,625,1368.5,625.1,1368.4,625L1368.4,625z M1763,401.7c14.5,13.9,32.8,25.3,46.7,39.9c12.2,12.7,28.7,34.1,34.5,51.1
			c-29.8,5.7-79.4,23.3-91.2,54.6c-46.4-42.6-64.3,35.2-73.5,67.8c-27.1-11.7-21.7-50.8-21.4-73.7c0.3-18.1,11.3-39.5-15-41
			c-19.6-1.1-38.7,6.9-56.5,14.4c-22.1,9.3-45.3,23.3-63.2,39.4l-18.6-14.5c30.5-17.1,46.4-49.9,64.3-79.9
			c5.7-9.6,13.3-20.2,17.5-30.5c2.9-7.1,4.9-21.6,8.1-27.9c5-10,53.4-12.7,66.2-15.3C1694.8,379.3,1735.3,375.2,1763,401.7z"/>
		<g id="Ink" transform="translate(167.199168, 81.229936)">
			<path id="ink-layer" class="st3" d="M1588.1,542.6c12.5-0.6,25,2.2,37.5,0.9c-10.9-9.5-21.7-18.9-32.6-28.4
				C1588.2,523.6,1587.8,533.2,1588.1,542.6L1588.1,542.6z M1291.2,348.1c-32.4,0.1-71.9,16.4-94.4,40.2
				c-11.9,12.6-21.8,29.5-31.8,43.6c-6.8,9.5-13.4,18.6-21.6,27c-12,12.2-8.5,14.9,4.9,24.1c4.3-8,26.9-50.7,36.4-48.8
				c14.4,2.9-13.4,48.1-16.5,53.7c-9,16.6-23.5,39.9-17,57.4c8.6,23.2-3.9,36.4-14.7,56.1c11.4,0.3,12.5-4.1,16.4-13.8
				c5-12.5,10.5-22.9,21.2-31.6c8.3-6.7,21.8-9.5,25.7-17.6c4.8-10,1.8-29.7,2.2-40.8c0.6-16.9,0.6-56.7,19.2-64.2
				c19.5-7.9,54.5-0.5,73.5,5.4c-2.4-14.9-9.9-24.6-9.8-41.1C1285.2,380.4,1289.9,365,1291.2,348.1L1291.2,348.1z M1042.4,624
				c16.9-5.4,33-11,50.4-14.7c18.2-3.8,19.5-8.2,29.7-23.8c7.8-11.9,17.2-21.1,15-35.6c-1.4-9.3-6.5-13.8-5-24.3
				c0.9-6.5,4-13.6,6.2-19.7c2.7-7.6,8.2-16.2-4.7-16.5c-7.1-0.2-7.5,3.6-12.3,9.9c-8.9,11.7-19.2,22.3-28.7,33.5
				c-16.5,19.5-34,40.2-52.4,58.2c-20.3,19.8-37.8,43.7-50.8,69.1c-2.4,4.7-17.1,32.3-10.9,37.7c5.8,5,37.8-6.6,43.7-8
				c25.2-5.9,53.9-7.9,77.7-18.6c12.1-5.4,38.9-11.9,48.5-20.3c8.9-7.8,8.5-26.7,3.3-37.6C1137.8,622.2,1033.1,656.1,1042.4,624
				L1042.4,624z M1357.6,469.1c16.9-15.3,36.9-27.5,57.8-36.6c18.7-8.1,41.9-17.2,62.6-15.8c25.9,1.8,15.1,22.6,15,40.3
				c-0.1,23.5-10.4,57.5,17.7,69.7c9.2-32.6,28.5-109.7,74.9-67c11.8-31.3,54.1-42,83.9-47.7c-5.4-15.8-21.8-30.2-33.1-42.1
				c-14.2-14.9-25.4-32.3-39.6-46.9c-28.1-28.8-79-19.6-114.6-12.4c-11.9,2.4-46.3,5.4-52.1,14.1c-3.6,5.5-1.6,18.8-4.3,25.5
				c-3.7,9.2-10,17.8-15,26.3c-18.4,31.1-37.2,62.3-68.7,80.1L1357.6,469.1z M1460.7,636.4c-16.7,6.4-29,17.1-43.8,26.1
				c-17.9,10.9-39,21.2-55.1,34.7c-5.9,4.9-9.2,13.5-17.3,14c-7.1,0.5-17.9-7.7-24.1-10.6c-10.5-4.8-20.6-12.1-31.2-16.5
				c-8.7-3.5-12.5-2.8-20.1-9.7c-4.2,25.1-81,1.6-97.1,1.3c-14.9-0.4-35.3,1.4-49.2,7.4c-13.2,5.7-23.5,18.3-34.8,26.8
				c-15.5,11.7-30.3,23.6-41.7,39.8c-15.7,22.3,8,16,23.7,14.6c36-3.1,70.9,5.5,105.6,13.7c31,7.4,61.6,16.2,91.2,28.2
				c16.7,6.7,34.2,12.9,49.9,21.7c8.3,4.6,21.7,15.9,31.2,12.7c8.7-3,17.4-27.9,22.6-37.9c10.2-19.3,21-38.3,31.6-57.5
				C1422.2,709.1,1442,673.3,1460.7,636.4L1460.7,636.4z M1255.4,1115.1c10.3-5.9,27.1-4.3,38.4-6.8c12.9-2.8,25.8-7.4,38-12.1
				c12.4-4.8,24.1-9.7,35.5-15.7c5.2-2.8,12.1-5.5,16.9-9.3c3.9-3.1,5.3-8.8,8.8-11.6c9.3-7.3,12-2.7,13.3-16.8
				c1.4-15.3-7.2-23.9-17.9-35.3c-9.5-10.2-21.9-19.1-33.9-26.3c-5.3-3.2-11-6.8-16.4-9.8c-8.2-4.6-19.2-12.2-23.5-2.4
				c9,2.3,10.9,13.7,2.8,17.8c-4.4,2.3-11.2-1.1-16.2,1.3c-7.7,3.7-15.2,14-21.8,19.6c-21.7,18.3-42.5,25.1-70.9,26.6
				c-59.4,3.1-121.5-3.7-179.7-12.5c-15-2.3-29.9,0.2-45.1-0.4c-14.7-0.5-30.1-3.7-44.5-6.2c-27.9-4.8-57.2-8.7-84.7-15.8
				c-33.2-8.5-66.5-19.5-97.6-33.8c-29.9-13.7-63.6-36.3-97.2-38c14.3,14,35.8,19.4,53,28.6c14.1,7.5,36.1,12.4,45,24.8
				c5.8,8.1,8.7,22.9,13.1,32.4c4.8,10.5,9.3,21.2,13.8,31.8c4.5,10.7,9.2,21.4,12.8,32.5c2.3,6.8,3.2,21,8.6,25.7
				c8.5,7.5,37,10.8,48.5,13.3c21.4,4.6,45.9,4,67.8,4.3c9,0.1,18.1,1.4,26.8,1.5c12.1,0.2,11-1.9,10.8-12.4
				c-0.1-6.3,0-17.8,8.5-12.6c5.8,3.5,1.8,19.3,0.7,24.8c48.3,4.8,98.6,7.2,146.7,5.6C1163.1,1126.7,1208.7,1120.6,1255.4,1115.1
				L1255.4,1115.1z M1473.3,1004.3c8.5-61.1,18.9-123.3,30.5-183.6c11.7-61,25.9-121.4,41.7-182.2c-10.5-2.5-21-5-31.5-7.5
				c-0.4,12.8-4.7,23.9-6.6,36.7c-2.5,17.6-7.4,34.7-10.3,52.2c-5.5,33.3-15.8,65.9-24.8,98.4c-9.2,33.1-12.3,67.3-20.8,100.5
				c-7,27.4-10.5,57.6-14.4,85.8c-9.5,68.4-22.9,136.9-33.2,205.4c-9.6,64.2-10.6,129.6-10,194.4c0.3,39.5,6.4,79,6.1,118.6
				c-0.1,9.8,0.7,19.5,1.3,29.3c0.4,6.9-3.3,26-0.2,31.8c2,3.7,10.5,7,13.6,12.1c4.8,8,5.8,17.6,13.5,23.7
				c6.2-25.1,3.3-58.3,1.9-83.9c-1.3-24.7,1.2-50.2,1.7-75.3c1-49.2,3.6-97.7,6.1-146.9c2.8-54,10.6-109.3,18.3-162.8
				C1463.2,1102.3,1467.8,1052.8,1473.3,1004.3L1473.3,1004.3z M1245.4,237.6c-3.4-0.3-6.8-0.6-10.1-0.9c0.5,7.1-1,18.6,4,22.3
				c3.8,2.8,11.5,1.9,16.1,2.8c15.1,3,32.6,5.4,47.6,0c5.8-2.1,2.1-5.4,10.1-4c9.7,1.6,6.1,3.2,8.9,9.2c2.1,4.7,3.3,12.6,5.7,18.2
				c3.3,7.5,9.9,20.8,7.1,29.5c-2.7,8.4-13,10.9-17.4,20.4c-3.2,7.1-2.5,17.3-4.2,25.1c-2.2,10.4-5.1,20.7-6.3,31.3
				c-1.6,13.3-1,28.9,15.5,31c15.3,1.9,26.3-3,36.5-14.1c19.6-21.3,42-51.3,53.5-78.1c1.3-3.1,4.7-8.3,4.2-11.7
				c-0.9-6.6-1.3,0.1-3.4-4.5c-2-4.4-5.1-8.4-7-13.3c-6.7-17.5-11.4-35.9-14-54.5c-1.2-8.4-1.6-16.7-1.4-25.2
				c0.1-2.9,1.8-11.6,0.8-13.6c-1.1-2-6.6-2.9-8.3-4.9c-3.2-3.7-8.7-14.1-12.2-16.9c-4.3-3.4-14.1-0.7-15.8-7.5
				c-2.8-10.8,64-28.5,32.8-42.9c-23.3-10.8-59.1,43.8-67.2,0.8c-1.4-7.4,1.3-17.5-2-24.3c-3.6-7.5-13.4-10.3-20.3-14
				c-8.7-4.7-17.6-9.5-26.1-14.6c-5.8-3.5-14.2-12.8-20.4-13.7c2.4,12.6-2.2,25.2-2.3,37.8c13.4-3.6,22.7-3.7,36,2.8
				c6.3,3.1,30.1,20.5,18.1,29c-9.8-5.8-20.2-10.8-31.1-14.2c-4.3-1.3-9.7-3.2-14.2-3.3c-10.6-0.2-9.1,0.9-13.1,8.9
				c-3.8,7.7-3,27.8-11.4,32.7c-8.7,5.1-2-2-9.4-0.4c-4.2,0.9-8.9,4.1-12.8,5.9c5.3,5.8,16.1,11.1,19.6,17.5
				c5.2,9.4,3.4,28.7,4.2,39c6.7-2.4,13.8-2.5,20.7-4.3c6.4-1.7,15.3-9,16,1.7C1272.8,234.4,1253.9,237.6,1245.4,237.6L1245.4,237.6
				z M1333.2,552.6c0.5-10.3,1.1-20.7,2.3-31c0.8-6.9,7.3-27,3.6-33c-4-6.6-17.6-7-24.1-8.6c-12.5-3-24.4-5.5-37.1-7.5
				c-11.7-1.8-22.7-2.2-34.4-2.8c-12.8-0.6-16-4-18.8,10.1c-2.2,11.1-5.2,22.6-5.6,34c-0.4,10.7,2.8,19.9-7.7,27.1
				c23.2,0,53.4-20.6,74.6-2.2c30.3,26.4-22.4,34-36.3,39.8c11.6,5.6,28.7,10,34.1,22.8c6.1,14.4-2.8,20.5-16.3,21.6
				c1.3,5.5,6.2,9.1,7.6,15.8c2.1,9.8-4.8,6.5,4,14.1c11.6,9.9,35.5,16.6,49.7,22.9c3.3,1.5,6.7,2.9,10.1,4.2
				c5.3,4.7,9.3,3.8,11.8-2.7c7.3-4.6,13.8-14.9,20.3-20.9c14.4-13.3,30.3-25,47.4-34.7c-7.1-2.9-15.6,3.7-22.4,0.5
				c-5.5-2.6-3.4-7.4-6.7-10.9c1.3-4.6-0.1-6.3-4.2-5.1c-2.1,0.2-4-0.1-5.7-1c-3.4-4.3-5-5.7-5.2-12.2c-0.2-7,3.8-9.5,5.4-15
				c5-3.4,4.9-6.8-0.3-10.1c-2.2-3.5-3.4-7.4-3.6-11.5c-1-15.4,13.1-21.6,23.8-29.8c-19.2-2.1-18.5-24.6-5.2-34.5
				c13.8-10.2,43-6,59.6-3.7c3.5,0.5,12.8,4.9,16.3,2.1c2.1-1.7,0.6-16.5,0.7-19.1c0.2-5.9,1.7-13,0.7-18.9c-2-12.3,2.2-6.1-6.7-6.5
				c-21.1-0.8-48,17.6-66.6,26.3c-20.8,9.7-34.2,11.2-34.4,35.3c-0.2,22.8-6.6,45.6-9.4,68c-1.2,9.8-2.1,60.8-20.1,42
				c-7-7.3-2.5-18.5-2-27.5C1333.2,577.6,1332.8,565,1333.2,552.6L1333.2,552.6z M171.6,1316.8c10.3,1.8,27-4.1,38.2-4.7
				c19.6-1.1,39.8-2.9,59-7c15-3.2,32.2-6,40.3-20.5c7.2-13,9.8-29.3,13.7-43.5c2.1-7.5,7.4-18.5,7.4-26.2c0-10.1-1.4-8.1-11.9-13.7
				c-13.4-7-26.4-16.8-40.8-20.8c-4.4-0.9-8.7-1.7-13.1-2.5c-5.7-3.3-8.8-1.7-9.6,4.8c-5.5,5.8-8.8,16.5-13.4,23.3
				c-10.6,15.5-23.1,26.1-39.5,35c-29.5,16.1-56.9,28.5-88.5,39c-17.4,5.8-33.4,13.9-50.4,20.3c-13.6,5.1-32.4,6.7-42.9,18.1
				c-11.8,12.9,6.3,17.5,16.4,26.2c8.3,7.1,8.4,8.8,19.7,5.3c8.4-2.6,15.9-7.5,24-10.8C108,1327.8,141.5,1320.2,171.6,1316.8
				L171.6,1316.8z M804.6,1520.8c-10.3-2.2-20.6-4.5-31-6.7c10.2,18.9,31.5,46.7,16.2,68.6c-5.7,8.2-15.3,10.5-23.8,14.7
				c-10.3,5-19.8,11.5-29.5,17.5c-40.2,24.7-81,49.8-123.3,71c13.2,4.3,33.6,7.2,47.3,3.5c15.9-4.3,30.6-14.3,46.9-18.7
				c29.3-7.8,60.1-14.5,89.8-18.5c24.3-3.3,85.1,4.1,82.2-32.4c-2.8-34.7-23.5-67.8-29.7-102.1
				C834.5,1521.2,820.1,1520.6,804.6,1520.8L804.6,1520.8z M1419.9,965.7c11.8-57.7,18.8-116.5,32.7-173.8
				c6.9-28.6,11.8-57.6,18.6-86.2c3.1-13.3,5.5-26.7,8.6-40c3.1-13.4,9.8-25.9,11.3-39.8c-11.2,2.8-13.8,28.5-17.3,38.2
				c-6.3,17.8-13.1,34.8-21.1,51.9c-12.8,27-26.3,53.1-40.7,79.3c-15.2,27.7-31.2,54.2-50.2,79.5c-6.2,8.3-14.7,14.8-18.7,23.9
				c-6.3,14.3-9,31.4-15,46.3c4.3,2.2,15.2,2.7,20.4,3.7c9.7,1.9,16.5,3.6,25.8,8.2c16.4,8.1,30.2,17.7,41.2,32.4
				C1418.2,981.8,1418.9,973.6,1419.9,965.7L1419.9,965.7z M962.6,1406.2c-0.2-55.6-1-111.7-0.1-166.9c0.3-15.3,1.5-31.9,3.7-47.1
				c1.4-9.6,9.6-29.9,4.2-34.5c-4.6-3.9-29-1.3-34.9-1.5c-11.6-0.3-23.2-0.8-34.8-1.7c0,20.6,8.1,44,11.8,64.4
				c3.5,19,6.4,38.1,9.2,57.2c6.2,41.4,8,83.3,14.8,124.8c6.1,37.6,14.2,75.1,18.7,112.7c2.4,20.6,7.4,40.1,11.2,60.7
				c2,10.8,9.3,55.1,18.6,59.4c2-15.9-6-35.1-7.4-51.2c-1.5-16.6-2.6-33.3-5.3-50c-3.2-19.6-4.8-39.6-6-59.5
				c-0.7-12.1-1-24.2-2-36.3C963.5,1428.1,960.2,1414.8,962.6,1406.2L962.6,1406.2z M1252.4,662.6c0.4-6.1-15.3-5.8-18.2-12.8
				c-5.9-14.1,7.6-11.6,15.9-13.1c-3-7.9-58.4-5-45.5-26.2c9-14.7,42.9,7.8,52-6.2c6-9.2-10.3-10.5-16.7-11.4
				c-9.7-1.4-32.5,3.1-31.8-9.5c0.9-15.8,45.3-26.7,57.8-31.3c-1.4-10.8-54.8,4.6-62.5,8.9c-17.5,9.9-30.9,27.7-33.5,47.5
				c-3,23,8.7,41.1,31.7,46.8c9.6,2.4,16.7,2.6,25.6,6.2c5.8,2.3,24.7,8.1,28.7,2.3C1254.8,663.5,1253.6,663.1,1252.4,662.6
				L1252.4,662.6z M1566,519.5c0.9-9.8,9.2-28.3-0.4-34.8c-13.3-9-18.9,5.9-21.9,14.8c-3.7,10.9-19.2,37.7-5.7,44.5
				c3.2,1.6,18.1-0.3,20.8-1.3c7.4,1.9,9.7-0.8,7.1-8.3L1566,519.5L1566,519.5z M1240.2,1313.3c-0.8-26.9,11.2-59.2,18-85.5
				c7.7-29.8,11.8-60.2,20-89.7c-9.1,1.1-18.3,2-27.3,3.8c-12.3,2.5-12.5,2.1-11.6,14.1c1.3,18.1-0.4,35.8-1.3,53.9
				c-1.9,36.2,2.7,73-0.3,109C1240.3,1319.7,1241.2,1317.8,1240.2,1313.3L1240.2,1313.3z M1580.3,609.2
				c29.5,4.5,57.8,13.9,84.6,26.4c14.8,6.9,31.1,14.4,47.6,17.1c18.4,3.1,37.9,1.6,56.6,2.8c6.6,0.4,24,3.6,30.5-0.3
				c6.4-3.9,5.9-10.4,6.2-18.2c0.8-20-8.3-39.6-16.4-57.6c-7-15.4-12.3-27.2-23.1-40.4c-13.9-17-26.1-35.4-39.1-53.2
				c-9.8-13.4-19.8-26.6-29.8-40c-7.2-9.6-6.8-12.9-17.6-11.8c-10.6,1.1-21.4,7.3-31.4,10.7c-14.9,5-32.9,7.7-46.5,15.6
				c-8.8,5.1-9.2,6.1-9.1,15c0.1,8.3,2.8,18.5,7.8,25c10.3,13.5,27.5,20.7,42.2,27.4c8.5,3.9,15.9,9.4,23.4,14.8
				c8.2,5.8,24.6,9.2,30.9,15.8c18.2,19.2-14.9,15.4-24.2,14.9c-20-1.3-39.8-1.1-59.9-1.1c-21.9,0-43.7-1-65.4-0.3
				c-12.7,0.4-27.2-6-35.4-16.7c-4-5.2-5.5-10.1-10.7-15.5c-6.8-7-12.7-14.5-21-19.9c-13.6-8.9-38.2-14-54.3-10.6
				c5.8,0.8,33,10.1,21,21.7c-1.5,1.4-18.9,2.3-22.7,4.1c-6.9,3.1-15.5,7.7-19.5,14.4c11.7-2,55.2-4.2,33,18.2
				c-5.4,5.5-21.1,11-7.8,16.9c3.1,1.3,9.2-0.6,13.1,0.7c5.8,1.8,10.6,6.6,16.1,9.2c15.5,7.3,36.9,11.8,53.1,10.2
				C1534.7,602.2,1558,606.2,1580.3,609.2L1580.3,609.2z M986.2,1286.3c0.8,32.3-0.4,64.8,0.3,97.2c0.7,34.6,5.2,68.6,7.3,102.9
				c1.9,30.7,6.1,60.9,9.4,91.4c1.9,17.6,4.2,34.5,7.2,51.9c2.8,16.4,3.3,30.8-16.3,35.2c-37.4,8.4-43.2-45.4-50.4-68
				c-10.8-33.8-17.7-69.3-23.1-104.4c-10-65.3-23.2-129.7-28.3-195.5c-3.2-40.6-7.8-80.7-10.4-121.2c-0.5-7.9,1.5-20.2-5.5-23.7
				c-4.2-2.1-15.7-2.1-21-3.7c-14.8-4.3-28.4-10.6-42.8-17.2c10.2,53.4,13.6,106.5,21.3,160.4c4.1,28.6,11.8,58.2,18.6,86.3
				c7,29.1,8.5,60.5,16.6,89.1c3.6,12.6,6.6,17.7,1.4,30.6c-6.3,15.8-2.1,19.6,5.8,35.2c14.6,28.6,25.7,62.4,23.2,94.6
				c-2,26.3-21.9,40.1-46.6,47.2c-30.9,8.9-63.2,7.8-94.2,17.9c-27,8.8-54.5,15.3-80.8,26.9c-10.6,4.7-20.6,10.2-32.4,11.1
				c-16.1,1.2-27-8.2-42.2-10.1c-9.5-1.2-23.5,3.3-28.9-6.7c-4.3-7.9,0.6-25.2,6-31.5c15.3-17.9,46-33.5,66.7-44
				c23.8-12.2,46.9-27.4,69-43.1c13.4-9.5,27-18.7,40.4-28.2c8.8-6.3,12.2-6.4,11.3-16.4c-0.7-8-4.3-15.8-5-23.9
				c-0.5-6.3,1.7-14.8-1.2-18.9c-2.2-3-10.4-5.1-13.6-7.4c-11.8-8.3-14.4-18.7-19.8-31.4c-12.1-28.8-26.1-56.8-37.8-85.9
				c-25.2-62.4-40.5-128-61.4-191.7c-21.3-65-40.4-133.3-52.1-200.8c-15.7,4.8-30.5,25.9-43.1,36.4c-16.9,14.1-34.2,27.8-50.8,42.4
				c-27.2,23.8-54.7,47-77.2,75.5c-10.8,13.7-19.7,28.5-29.5,43c-5.7,8.3-10.9,17.8-17.1,25.7c-1,1.3-1,3.9-2.1,5
				c-2.3,2.4-6.8-0.8-8.3,0.8c-9.2,9.7-9.1,37.1-12,49.8c-4,17.6-8.4,37.7-22.1,49.8c-21.2,18.7-60.2,21.6-87,22.6
				c-34.4,1.2-67.8,10.8-100.4,21.1c-15.2,4.8-30,10.4-45.3,15.1c-8.8,2.7-18.8,8-28.2,7c-11.3-1.2-20.3-10.8-28.5-17.8
				c-13.3-11.3-25.5-22.5-25.1-41.1c0.5-19.7,11.1-34.5,27.9-44.3c32.4-18.9,68.7-31,103.7-44c13.4-5,24.9-10.5,37.7-17.3
				c18.1-9.5,38.9-17.3,55-29.9c4.7-3.7,22.1-15.1,23.6-20.9c0.2-0.8-4.2-9.7-4.2-11.1c0-3.6,2.1-7.6,3.4-10.7
				c8.4-19.7,22.4-38.6,33.1-57.2c19.7-34,39.4-68.1,62.2-100.1C388,926.5,439,864.1,494.1,808.5c26.9-27.1,50.1-57.9,77.3-84.6
				c10.8-10.6,22.2-19.2,35.5-26.1c14.8-7.7,31.5-9.2,48.4-11.5c41.2-5.7,75.5,6.5,114.2,17.1c36.5,10,73.1,18.5,109.8,28.9
				c40.3,11.5,80.3,22.4,120.5,34.9c21.5,6.7,43.6,10.8,65.2,17.2c10.4,3.1,49.7,22.4,58.4,16c-27.3-12.8-55.3-24.5-84.5-32.2
				c-8.6-2.3-14.1,0.2-13.8-9.6c0.2-5.4,6.2-12.7,8.4-17.1c5.2-10.6,11.1-21,16.2-31.6c-18.5,5.3-68.3,23.5-82.3,4.6
				c-14.6-19.7-2.4-58.3,6.7-77.6c23.9-50.3,64.5-92.3,104.1-130.3c8.6-8.2,27-18.9,31.6-29.4c1.4-3.2-1.6-7.8,1.5-12
				c1.9-2.5,9.3-4.1,12.3-6.8c10.9-9.6,19.6-29.9,27.1-42.5c7.9-13.2,15-27.6,24.9-39.4c16.2-19.4,32.9-40,59.1-44.5
				c12.9-2.2,26.5-1,38.9-5.5c14.9-5.4,29.1-13.8,44.1-19.4c-3.7-7.7-6.8-19.9-14-20.7c-7-0.8-17.2,5.2-25.2,5.1
				c-11.7-0.1-21.6-1.9-32.9-4.2c-12.5-2.5-16.6-2-21.1-15.5c-4.8-14.2-3.6-30.6-3.5-45.3c0-7.2,1.4-16.1,0.8-23.1
				c-0.9-10.6-3-11-11.3-17.8c-10.4-8.4-23.2-19.6-10.5-34.3c6.9-7.9,21-1.8,27.1-10.3c6.2-8.7,5.9-30.5,7.8-40.6
				c-19.2,9.4-12.1-25.8-12.1-34.2c0-12.3-8.3-34.5,3.6-44.7c5.5-4.8,9.6-0.8,15.9-3.6c7.2-3.1,11.7-11.3,19.4-14.5
				c15.2-6.3,30.8,1.3,46.5,0c18-1.4,35.6-4.2,53.6-1.3c8.6,1.4,12.2,4.6,19.4,8.2c7,3.5,14,4.5,21.6,6.7c6.7,2,12.6,3,17.2,8.9
				c3.6,4.6,2.1,12.4,5.8,16.4c3.6,3.9,10.7,3.4,14.9,8c4.1,4.5,6.5,11.9,8.7,17.5c2.9,7.5,3.2,10.3,8.3,16.4
				c4.4,5.3,10.8,9.5,14.5,15.5c8.7,14.1,8.9,34.6,6.1,50.4c-0.9,5.4-8.8,19.4-7.6,24c1.2,4.4,8.5,3.2,11.9,6
				c2.9,2.4,5.4,13.1,7.7,13.7c4.9,1.4,11-8.3,14.7-9.7c6.5-2.5,9.2-5.1,12.7,4.4c2.7,7.1-1,16.6-3,23.4
				c-2.5,8.6-5.2,18.9-11.8,25.4c-7.7,7.6-13.9,3.5-22.4,7.6c-12.7,6.2-9,25.4-24.7,30.9c-14.9,5.2-31.4-11.2-42.7-18.8
				c2.3,18.4,11.2,36.1,6.9,55c34.4-13.5,68.4-32.6,105.8-36.8c19.1-2.1,38.4-4.7,56.4,3.2c21.1,9.3,34,29.7,48.3,46.7
				c26.8,32,54.4,63,80.2,96c23.6,30.3,43.6,65.3,69.6,93.7c26.4,28.7,46.3,75.3,43.4,115.1c-0.3,3.6-3,11.8-2.6,15.6
				c0.3,3,3,6.7,3,9.1c-0.1,8.1-2.8,12.7-10.5,17.2c-13.3,7.7-33.1,11.7-48.2,13.6c-20,2.6-44.5,2.8-64.4,0.1
				c-20.6-2.8-38.7-14.4-57.7-21.3c-16.6-6.1-33.3-9.9-50.8-13.8c-9.6-2.2-20.3-8.1-26.3-2.3c-5.5,5.3-6.6,32.5-7.9,39.7
				c-13.8,78.4-30.3,154.2-44.8,232.2c-16.5,88.4-27.8,176.8-39.2,266c-10.4,81.1-13.8,163.1-16.2,244c-1.1,38.6-1.3,76.9-1,115.5
				c0.1,21.7,11,93.9-21.1,96.7c-18.9,1.6-34-25.4-39-40.2c-7.6-22.2-11.6-46-12.8-69.3c-2.4-47.1-5.7-94.3-7.6-141.4
				c-2.1-51.1,0.6-103.1,4.8-154c4.2-51.2,14.9-101.7,18.1-153.1c-9.8,14-12.9,16.6-29.3,22.7c-17.1,6.4-33.5,13.9-50.7,19.9
				c-5.9,2-15,3.3-19.8,6.6c-8.9,6.1-3-0.8-5.9,11.1c-3,12.7-3.6,27.9-4.4,41c-3.8,61.2-20.7,122-28.6,183
				c-1.9,14.7,0.8,77.1-24.5,57.5c-19.5-15.2-19.1-62.7-21.9-85c-3.7-29.7-1.6-60.3-1.1-90.2c0.7-34.1,1.2-69.8,9.4-103
				c-14.5-2.5-34.8,4.3-49.4,5.4c-12.7,1-25.3,1.6-37.9,2.3c-30.1,1.7-61,3-91.6,2.4c-5.6-0.1-41.9-5.2-46.6-1.1
				c-1.5,1.3-2,19.7-2.3,21.9c-1.1,8.4-2.5,16.8-3.6,25.2C988.3,1230.8,985.2,1259.5,986.2,1286.3L986.2,1286.3z"/>
			<path id="ink-layer_00000140729880232576374950000013562067991417377468_" class="st3" d="M1525.9,1540.6
				c22.9,9,47.3,12.2,70.4,20.4c20.7,7.3,39.9,17.1,60.2,24.5c1.2-9.4,1.8-25.4-1.7-34.3c-4.9-12.6-17.9-12.9-30.7-17.4
				c-31.1-10.9-63.9-13.2-94.8-26C1534.7,1517.9,1532.3,1531.4,1525.9,1540.6 M1921.8,1507.6c-49.5,1.5-96.9,13-145.7,20.1
				c-23.8,3.5-47.5,6.6-71.3,9.8c-9.2,1.2-25.8-0.2-32.5,7.7c-5.5,6.6,0.5,29-1.9,38.6c10,0.7,27.8-8.6,38.7-10.2
				c16.9-2.4,33.6-5.8,50.7-6.8c27.1-1.7,53.7-3.2,80.7-6.2c27.5-3.1,54.1-8.8,81.8-10.8c13.5-1,18.9,1.5,19.7-12.7
				c0.3-5.6,1.1-14.9-0.5-20.3c2.5-6.7,0.3-10-6.6-9.8C1930.5,1506.4,1926.2,1506.7,1921.8,1507.6 M1826,1462.3
				c13.4-1.3,26.8-3.1,40.3-3.8c2.7-0.2,16.5,0.7,18.8-1.9c3.2-3.6-0.4-16.7-1-20.7c-2-13.8-4.2-21.8-19.2-21.8
				c-12.7,0-25.8,2.7-38.5,3.9c-57.4,5.6-114.5,8-171.2,18.7c3.5,14.7,7.4,29.9,3.2,44.9c27.2,1.4,57.1-3.8,83.7-9.2
				C1769.4,1466.8,1798.3,1464.1,1826,1462.3 M1735.2,1323.8c-20.5,0.1-42.2,9.1-62.4,7.1c-0.3,3.8,6.2,0.6,8,4.2
				c3.8,0,5.1,1.3,4,3.7c0.1,1.7-0.8,2.7-2.6,3c-0.9,0.1-1.8,0.2-2.7,0.2c-3.9,0.1-4.6,2.8-1.9,7.9c-1.1,6.4,0.6,14.5,0.8,20.9
				c36.4-4.9,71.7-10.1,108.3-12.3c17.3-1,34.6-1,51.8-2.5c19-1.6,39.7,1.8,58.3-1.8c9.9-1.9,8.9-1.8,8.2-14.7
				c-0.4-7.8-0.3-17.1-6.7-22.9c-10.7-9.6-34.9-4-47.7-3.7C1812.2,1314.1,1773.1,1317.7,1735.2,1323.8 M1756.2,1508.1
				c54.9-5,109.4-15.9,164.6-15.9c-3.9-3.9-12.4-4.9-17.3-7c-5.5-2.4-10.8-7.6-16.2-9.7c-10.9-4.3-21.9,1.7-33.1,4.2
				c-26.9,6.2-54.5,6.4-81.5,12.4c-27.9,6.2-56.1,12-84.5,15.2c-13.5,1.5-28,4.6-41.4,1c-1.1-0.8-2.2-1.6-3.3-2.3
				c-1.2-5-4.4-6.3-9.7-4c-6.8-1.3-15.3,0.4-22.1,0.5c-0.3,2.7,24.8,11.2,29.6,13.3c11.5,5.1,19.4,8.8,31.7,6.6
				C1700.8,1517.6,1728.1,1511.7,1756.2,1508.1 M1563,1347.6c2.1,8.4,11.2,4.6,18.9,5.5c10.4,1.2,20.8,4.8,30.9,7.5
				c18.3,4.9,36.6,9.8,54.9,15c-0.7-7.4,0.9-24.1-3-30.7c-4.1-6.8-23.5-9.9-32.5-11.9c-22.7-5.3-47-2.3-70.1-1.2
				C1562.5,1337.1,1562.8,1342.3,1563,1347.6 M1781.4,1399.9c21.6-1.8,43.2-3.2,64.8-4c24.7-0.9,6.8-4.8,6.2-19.9
				c-32.5,5.2-65.3,6.2-97.7,10.6c-26.8,3.7-58.8,13.3-86.2,8.1c-12.9-2.4-26.1-3.4-39.8-4.7c-13-1.3-25.2-7.3-38-8.8
				c-14.4-1.7-29.1,6.4-43.4,8.5c-6.1,0.9-7.5,5-10.3-2.3c-3-7.6,5.5-13.7,8.9-18.3c3.9-5.3,2.3,3.3,4.5-5c0.6-2.3-1-8.1-1.3-10.6
				c-0.8-6.3-2.7-13.1-3.1-19.4c-0.3-5.8-0.3-14.6,5.9-17.9c3.8-2.1,6.5,0.9,9.9,0.4c26-4.5,56.6-4.9,83-0.5
				c28.6,4.7,53.2-7.8,81.5-12.9c33.1-6,66.5-6.9,99.9-9.4c28.5-2.2,80.7-13.3,91.5,23.1c3.1,10.3,7.6,38.7-0.7,47.5
				c-10.9,11.5-36,7.9-50.1,10.9c2.1,6,8.4,10,6.2,17.2c19.7,0.9,23.2,19.5,26.3,36.9c3.2,18-3,25.1,14.1,34.5
				c23.9,13,49.3,26.2,48.8,57.2c-0.2,15.6-2,39.2-18,47.2c-15.7,7.9-41.2,6.6-58.5,9.5c-33.5,5.6-67.1,12.1-100.7,15.5
				c-35.9,3.6-72.3,6.5-108.2,8.1c-19.6,0.9-36.5,3.8-55.4-2.8c-18.6-6.5-36.8-11.2-55.9-16c-18.9-4.7-76.9-11.1-60-43.5
				c2.7-5.2,11.9-9.3,13.4-14.2c2.4-7.9-5.7-14.1-5.4-21.2c0.6-13.1,15.4-14.7,25.5-14.7c-17.4-10.9,5.9-23.8,5.8-33.1
				c-0.2-16.3-20.5-26.9-21.7-40.6c-2.8-33.3,102.8,1.4,119,8.6c-12.5,18.5-70.5,2.5-87.8-0.3c2.4,6.2,4.6,11.8,5.3,18.1
				c0.6,5.2-1.4,11.1,0.4,16.3c2.9,8.2,2.8,6.6,12.9,8.9c7.5,1.7,14.9,3.6,22.3,5.3c11.4,2.7,29.4,9.9,40.8,9.5
				c9.9-0.3,8,2.7,9.8-8.3c1-5.9-0.7-12.2-1.7-18c-2.1-12.2-5.1-23.7,5.5-32.4c10.1-8.3,31.5-12.3,44-15.2
				C1721.2,1401.2,1753.1,1399.6,1781.4,1399.9"/>
			<path id="ink-layer_00000081624415266504345610000010045458579777559189_" class="st3" d="M1912.8,1192c-30-5-60.5-6.3-90.8-4.7
				c1.6,7.5,3.3,15,4.9,22.5C1855.3,1202.5,1884.2,1198.2,1912.8,1192L1912.8,1192z M1668.9,1250.3c-12-0.9-3.7,4.5-0.7,12.4
				c3.7,9.7,2.9,21.9,3.7,32.1c35.2-13.4,76.1-21.3,113.6-25.8c17.7-2.1,35.7-2.8,53.6-3.7c5.3-0.3,24.3,1.9,28.2-1.6
				c2.9-2.6,0.9-17.2-1.9-20.4c-15-17.5-72.9-2.4-93.8-0.8C1737.2,1245,1703.5,1251.1,1668.9,1250.3L1668.9,1250.3z M1718.9,1203.5
				c31.2,3,61.2,2.7,92.4,7.4c-2.4-19.8,0.5-24.9-22-25.9c-20-0.9-40-1.7-59.9-1.7c-44.8,0-89.5-0.8-134.4-0.8v20.1
				C1636.5,1198.3,1677.3,1206,1718.9,1203.5L1718.9,1203.5z M1569.1,1277.5c19.7-0.1,38.3,7.3,57.9,9.3c11.8,1.2,8.1,2.6,16.2,8.5
				c12.7,9.2,16.4,4.3,14.8-8.2c-5.4-42.3-59-32.8-89.9-35.2c2,10.1-2.6,18.6-9.5,25.6L1569.1,1277.5L1569.1,1277.5z M1781.6,1223.2
				c-28.3,0.5-56.6,2.1-84.7,1.5c-12.6-0.3-28.9-2.8-41.2-0.6c-9,1.6-16.6,6.2-26.5,7.9c14.5,7.8,21.9,2.5,37.2,0.8
				c15.3-1.8,30.8-1.7,46.1-2.7c25.2-1.5,52-7.6,76.9-5.9C1789.9,1220.6,1787.3,1220.3,1781.6,1223.2L1781.6,1223.2z M1557.3,1314.8
				c-13,0,4.9-14.8,7.2-16.2c-14.4,0-17.8-8.6-13.7-22.5c3.9-13,6.8-9-3-19.9c-7.4-8.2-8.6-14.2,0.2-23.3c8.9-9.3,27-6.7,34.9-14.3
				c13.4-13.1-3.9-39.1,14.7-49.1c12.6-6.8,32.9-5.9,46.8-7.4c13.4-1.4,27.3-1.6,40.9-1.8c29.5-0.4,60.1,4.5,89.5,7.3
				c10.7,1,22.7,5.3,33.3,5.3c10.8,0,22-2.4,33.1-2.1c12.9,0.3,25.3-0.6,38.7,1.5c10.2,1.6,34,2.5,41.8,10.1
				c26,25.3-35.6,36.9-46.2,39.7c10.8,11.8,10.3,27.4,8.7,42.3c5.1,0,14-2.2,16.6,3.5c3.3,7.1-8.9,9-11.8,9.8
				c-16.6,4.8-36.1,3.5-53.2,5.2c-34.2,3.5-68.1,5.5-101.9,12c-16.5,3.2-32.9,7.1-49.4,10.1c-2.8,0.5-5.7,1-8.6,1.3
				c-4.4-0.4-5.8,2.4-4.3,8.3c-4.6,2.2-21.7-3.3-26.9-4.2C1614.3,1305.5,1587.2,1307.5,1557.3,1314.8L1557.3,1314.8z"/>
			<path id="ink-layer_00000049918905758677598010000006353640996548897950_" class="st3" d="M2167.6,1608.2
				c-19.5,15.3-37.6,29.8-58.7,43.1C2123.8,1650.9,2173.5,1627.1,2167.6,1608.2 M2160,1583.2c-10.6-9.1-21.2-8.2-34.4-11
				c-12.1-2.6-23.9-6.9-36-9.9c-9.5-2.3-18.9-5.4-28.4-7.6c-13.4-3.1-14.7,0.3-27,7.3c-43.6,24.8-92.4,41.9-138.3,62.1
				c13.5,11.9,43.8,12.4,60.7,16.2c12.3,2.8,24,6.5,35.8,10.9c11,4.1,28.6,13.4,40.2,13.7c9.8,0.3,17.7-9.3,26.1-14.5
				c11.1-6.8,22.1-13.5,33.2-20.1C2115.6,1616.3,2137.6,1599.1,2160,1583.2 M1963,1683.8c-5-4.8-20.2-4.6-26.5-6.1
				c-12.4-2.9-24.7-5.9-37.3-8.1c-20.4-3.5-52.7-5.1-54.9-31.6c-1.8-22,24.8-27.3,40.3-34.7c23.4-11.2,47.3-21.6,71.3-31.5
				c22.5-9.3,45.4-17.1,68.3-25.1c4.5-1.6,8.1-1.3,11.7-4.9c2.9-2.8,2-8.3,5.1-11.3c7.2-6.8,16.6-3.2,25.3-1.5
				c19.7,3.9,40.2,9.1,59,16.4c19.5,7.6,37,9.2,41.7,31.3c10-4.7,17.5-5.4,16.3,8.4c-0.3,4-3.3,8.4-4,12.6c-1,6.2,0.8,12.6-0.2,18.8
				c-3.7,22.4-34,39-52.7,47.8c-23.1,10.9-52.9,26.9-78.7,29C2020.3,1695.6,1990.3,1684.8,1963,1683.8"/>
			<path id="ink-layer_00000052078213846213798720000015546760606195450549_" class="st3" d="M1613.1,1311.9
				c-8.2,0.1-16.4,0.1-24.6,0.2C1596.7,1310.5,1604.9,1310.5,1613.1,1311.9"/>
			<path id="ink-layer_00000021841890545926477120000017747403352382357139_" class="st3" d="M1133.6,444.9
				c-2.5,4.1-4.9,8.2-7.4,12.3C1127.1,451.9,1128.9,447.3,1133.6,444.9"/>
			<path id="ink-layer_00000155843504778783331540000013726127142422781113_" class="st3" d="M1613.1,1429.4c4.9,0,9.9,0.1,14.8,0.1
				C1622.9,1429.4,1618,1429.4,1613.1,1429.4"/>
			<path id="ink-layer_00000048497587883811422670000013799085622729045172_" class="st3" d="M1726.2,1161.9
				c-5.7-0.3-11.5-0.6-17.2-0.9C1714.7,1161.3,1720.5,1161.6,1726.2,1161.9"/>
			<path id="ink-layer_00000098191104868027262210000015088583481530520705_" class="st3" d="M1627.9,1312c-4.9,0-9.8-0.1-14.8-0.1
				C1618,1310.5,1623,1310.5,1627.9,1312"/>
			<path id="ink-layer_00000143615713584263482050000002571755520150963353_" class="st3" d="M1823.6,614.5
				c-0.1-4.9-0.3-9.8-0.4-14.8C1823.3,604.7,1823.4,609.6,1823.6,614.5"/>
			<path id="ink-layer_00000089545761754097307100000013210563013969833102_" class="st3" d="M987.4,1356.9
				c-0.1-4.1-0.2-8.2-0.3-12.3C987.2,1348.7,987.3,1352.8,987.4,1356.9"/>
			<path id="ink-layer_00000112606395001200112320000008100136482614892420_" class="st3" d="M1121.3,1156.5c3.3,0,6.6,0,9.8,0
				C1127.9,1156.5,1124.6,1156.5,1121.3,1156.5"/>
			<path id="ink-layer_00000118389241958681402390000016989056373794846599_" class="st3" d="M1561.5,273.6
				c-4.1,0.3-8.2,0.6-12.3,0.9C1553.3,274.1,1557.4,273.9,1561.5,273.6"/>
			<path id="ink-layer_00000173127817197248246120000010117181990595121336_" class="st3" d="M1871.3,1171.3
				c-4.9,0-9.8-0.1-14.8-0.1C1861.5,1171.3,1866.4,1171.3,1871.3,1171.3"/>
			<path id="ink-layer_00000158728144751884245130000011613870608944657314_" class="st3" d="M1457.1,1474.9
				c-0.1-3.3-0.2-6.6-0.4-9.8C1456.9,1468.3,1457,1471.6,1457.1,1474.9"/>
			<path id="ink-layer_00000060002173764976768040000016063737947395836301_" class="st3" d="M1462,1349.5c-0.1-3.3-0.2-6.6-0.3-9.8
				C1461.8,1343,1461.9,1346.2,1462,1349.5"/>
			<path id="ink-layer_00000170967509703275118360000004644904360082528663_" class="st3" d="M1378.1,1406.1
				c0.1,3.3,0.2,6.6,0.4,9.8C1378.3,1412.6,1378.2,1409.3,1378.1,1406.1"/>
			<path id="ink-layer_00000095301967116085911800000005206541465041152685_" class="st3" d="M1141,1154.1c2.5,0,4.9-0.1,7.4-0.1
				C1145.9,1154.1,1143.4,1154.1,1141,1154.1"/>
			<path id="ink-layer_00000098223460116610000920000003098222551984445335_" class="st3" d="M1854.1,1282.1
				c2.5-0.1,4.9-0.2,7.4-0.3C1859,1281.9,1856.5,1282,1854.1,1282.1"/>
			<path id="ink-layer_00000069373974827642116070000016590305167874772644_" class="st3" d="M1383,1484.7c0.1,3.3,0.3,6.6,0.4,9.8
				C1383.3,1491.3,1383.1,1488,1383,1484.7"/>
			<path id="ink-layer_00000053511320589944379090000017612524432869662140_" class="st3" d="M1646.6,1467.5
				c-0.2,3.3-0.3,6.6-0.5,9.8C1646.2,1474.1,1646.4,1470.8,1646.6,1467.5"/>
			<path id="ink-layer_00000031196174057245400380000014872202886477048225_" class="st3" d="M1363.1,2.7c-3.5-0.4-6.9-0.9-10.4-1.3
				C1356.2,2.2,1359.9-0.8,1363.1,2.7"/>
			<path id="ink-layer_00000088133534015249295980000005527470664984070038_" class="st3" d="M1213.7,1263.5
				c-0.1,3.3-0.2,6.6-0.3,9.8C1213.5,1270,1213.6,1266.8,1213.7,1263.5"/>
			<path id="ink-layer_00000000215389771245208730000001484798341614609327_" class="st3" d="M1002.3,1563.4
				c-0.2-3.3-0.3-6.6-0.5-9.8C1002,1556.8,1002.1,1560.1,1002.3,1563.4"/>
			<path id="ink-layer_00000109707755322514996860000006634043738001347519_" class="st3" d="M1797.5,1286.9
				c2.5-0.1,4.9-0.1,7.4-0.2C1802.4,1286.8,1800,1286.9,1797.5,1286.9"/>
			<path id="ink-layer_00000015339638507059644310000007607379614298709422_" class="st3" d="M962.7,690.7c0,3.3,0,6.6,0.1,9.8
				C962.7,697.2,962.7,694,962.7,690.7"/>
			<path id="ink-layer_00000067196879443599579730000014938143490157933239_" class="st3" d="M911.1,1428.2c0,3.3,0,6.6,0,9.8
				C911.1,1434.7,911.1,1431.5,911.1,1428.2"/>
			<path id="ink-layer_00000064312978472981263790000014214392510824687765_" class="st3" d="M1523.9,1408.5
				c-0.1,3.3-0.2,6.6-0.3,9.8C1522.3,1415,1522.5,1411.7,1523.9,1408.5"/>
			<path id="ink-layer_00000084509085815300108510000002782624820884987275_" class="st3" d="M1064.8,1159c2.5,0,4.9,0,7.4,0
				C1069.7,1159,1067.2,1159,1064.8,1159"/>
			<path id="ink-layer_00000008838517640465345320000004450738673310752913_" class="st3" d="M1459.5,1393.8c0-3.3-0.1-6.6-0.1-9.8
				C1459.4,1387.2,1459.4,1390.5,1459.5,1393.8"/>
			<path id="ink-layer_00000023982027545846162740000003536202171134333352_" class="st3" d="M1962.3,1685c2.5,0.1,4.9,0.1,7.4,0.2
				C1967.2,1685.1,1964.7,1685,1962.3,1685"/>
			<path id="ink-layer_00000178902472871208917730000015160747944014984073_" class="st3" d="M1873.8,1372.9c1.6,0,3.3-0.1,4.9-0.1
				C1877,1372.9,1875.4,1372.9,1873.8,1372.9"/>
			<path id="ink-layer_00000130636322362562887500000018032086738224411542_" class="st3" d="M1812.3,1380.3c1.6,0,3.3,0,4.9,0
				C1815.6,1380.2,1813.9,1380.3,1812.3,1380.3"/>
			<path id="ink-layer_00000155134830410665851610000010864793962725380007_" class="st3" d="M854.7,1396.2
				c-0.1-2.5-0.2-4.9-0.3-7.4C854.5,1391.3,854.6,1393.8,854.7,1396.2"/>
			<path id="ink-layer_00000011012489834638488940000001650423710653816250_" class="st3" d="M1861.5,1394.4c-2.1,2.2-4.9,0.9-7.4,1
				C1856.5,1395,1859,1394.7,1861.5,1394.4"/>
			<path id="ink-layer_00000130640617591523657860000017698752519918699940_" class="st3" d="M1568.8,1315.7
				c-3.2,1.5-6.5,1.7-9.8,0.1C1562.3,1315.8,1565.6,1315.7,1568.8,1315.7"/>
			<path id="ink-layer_00000165207645901874847280000004009454835579808431_" class="st3" d="M1782.8,1400c-3.3,0-6.6-0.1-9.8-0.1
				C1776.2,1399.9,1779.5,1399.9,1782.8,1400"/>
			<path id="ink-layer_00000109004702750878858560000001704928376463899057_" class="st3" d="M1645.1,1314.3
				c-3.3-0.3-6.6-0.6-9.8-0.9C1638.5,1313.7,1641.8,1314,1645.1,1314.3"/>
			<path id="ink-layer_00000052106420246647396380000003476685828736016007_" class="st3" d="M893.9,1302.8
				c-0.1,2.5-0.1,4.9-0.2,7.4C893.8,1307.7,893.9,1305.3,893.9,1302.8"/>
			<path id="ink-layer_00000036972350881313582380000011726387412032348569_" class="st3" d="M1459.2,1435.6
				c0.1-2.5,0.3-4.9,0.4-7.4C1459.5,1430.7,1459.4,1433.1,1459.2,1435.6"/>
			<path id="ink-layer_00000064343730385138131540000015040587561029968018_" class="st3" d="M1797.5,1293.8
				c-3.3,0.3-6.6,0.6-9.8,0.8C1791,1294.3,1794.3,1294.1,1797.5,1293.8"/>
			<path id="ink-layer_00000123432526318043733450000013664437990567048592_" class="st3" d="M987.4,1285.6
				c-0.1-2.5-0.1-4.9-0.2-7.4C987.3,1280.7,987.3,1283.2,987.4,1285.6"/>
			<path id="ink-layer_00000163045940047022186650000003282289917356691368_" class="st3" d="M1398.2,1096.3
				c-0.2,2.5-0.4,4.9-0.6,7.4C1397.8,1101.2,1398,1098.8,1398.2,1096.3"/>
			<path id="ink-layer_00000077293028559148228590000014175599877901428654_" class="st3" d="M1846.7,1170.7c-3.3,1.7-6.6,1.5-9.8,0
				C1840.2,1170.7,1843.4,1170.7,1846.7,1170.7"/>
			<path id="ink-layer_00000082346755478021843710000015924096454278400658_" class="st3" d="M1457.2,1511.8
				c-0.1-2.5-0.3-4.9-0.4-7.4C1456.9,1506.9,1457,1509.3,1457.2,1511.8"/>
			<path id="ink-layer_00000000189866069034128290000018034536702354031244_" class="st3" d="M1457.1,1531.4
				c-0.1-2.5-0.2-4.9-0.3-7.4C1456.9,1526.5,1457,1529,1457.1,1531.4"/>
			<path id="ink-layer_00000149360132434930128530000012539636350713024389_" class="st3" d="M992.2,1206.9c0-2.5,0.1-4.9,0.1-7.4
				C992.2,1202,992.2,1204.5,992.2,1206.9"/>
			<path id="ink-layer_00000000190026488483680300000017218553551354239627_" class="st3" d="M1691.8,1599.1c1.6,0,3.3-0.1,4.9-0.1
				C1695.1,1599,1693.4,1599.1,1691.8,1599.1"/>
			<path id="ink-layer_00000070815884598806571000000000438414543237609611_" class="st3" d="M899,1619.9c-0.1-2.5-0.3-4.9-0.4-7.4
				C898.7,1615,898.8,1617.5,899,1619.9"/>
			<path id="ink-layer_00000116942427382489899790000007272559904516054933_" class="st3" d="M1431.1,1640.8c1.6,0,3.3,0.1,4.9,0.1
				C1434.4,1640.9,1432.8,1640.8,1431.1,1640.8"/>
			<path id="ink-layer_00000064321193218858678580000013216862358479902852_" class="st3" d="M1787.7,1169.2
				c-3.3-0.2-6.6-0.5-9.8-0.7C1781.1,1168.7,1784.4,1169,1787.7,1169.2"/>
			<path id="ink-layer_00000160893766553295352550000011884234744432141222_" class="st3" d="M1804.9,1171.8l-7.4-1L1804.9,1171.8z"
				/>
			<path id="ink-layer_00000131365815376688536460000006475342473302681254_" class="st3" d="M1432.2,1430.6
				c0.1-7.4,0.3-14.8,0.4-22.1C1432.4,1415.9,1432.3,1423.3,1432.2,1430.6"/>
			<path id="ink-layer_00000097490228275808258930000017133395386315213987_" class="st3" d="M1240.4,1160.2
				c0.1,5.7,0.2,11.5,0.3,17.2C1240.6,1171.7,1240.5,1166,1240.4,1160.2"/>
			<path id="ink-layer_00000172415181141146055630000008329011974088517564_" class="st3" d="M816.4,1520.3c-4.1,0-8.2,0.1-12.3,0.2
				C808.2,1520.4,812.3,1520.3,816.4,1520.3"/>
			<path id="ink-layer_00000155831275578300322130000002032268697373050523_" class="st3" d="M1153.3,1031.3
				c-4.1-0.1-8.2-0.1-12.3-0.2C1145.1,1031.1,1149.2,1031.2,1153.3,1031.3"/>
			<path id="ink-layer_00000165913494113959744530000013171751700237850801_" class="st3" d="M1047.5,1127c4.1,0,8.2,0,12.3,0
				C1055.7,1127,1051.6,1127,1047.5,1127"/>
			<path id="ink-layer_00000165234471522379309560000008194273916821154692_" class="st3" d="M1101.6,1028.6
				c-3.3,0.1-6.6,0.1-9.8,0.2C1095.1,1028.7,1098.4,1028.7,1101.6,1028.6"/>
			<path id="ink-layer_00000098914490140300555340000009248124696729604782_" class="st3" d="M836.1,1520.4c-3.3,0-6.6,0-9.8-0.1
				C829.5,1520.4,832.8,1520.4,836.1,1520.4"/>
			<path id="ink-layer_00000139990114836437815970000006689467073160451771_" class="st3" d="M1278.7,264.6
				c4.1-0.3,8.2-0.6,12.3-0.9C1286.9,264,1282.8,264.3,1278.7,264.6"/>
			<path id="ink-layer_00000115505432985545198140000010866324738246788789_" class="st3" d="M1333.8,553c0.2-4.1,0.3-8.2,0.5-12.3
				C1334.1,544.8,1333.9,548.9,1333.8,553"/>
			<path id="ink-layer_00000165231923275467046190000012444387446056468645_" class="st3" d="M1234.4,591.1c-2.5,0-4.9,0-7.4,0
				C1229.5,591.1,1232,591.1,1234.4,591.1"/>
			<path id="ink-layer_00000065770276095663895320000007809022846666737583_" class="st3" d="M1025.4,1021.3c-2.5,0-4.9,0.1-7.4,0.1
				C1020.5,1021.3,1023,1021.3,1025.4,1021.3"/>
			<path id="ink-layer_00000098194482627211221390000004428476239588206497_" class="st3" d="M968.9,1121.7c3.3,0.3,6.6,0.5,9.8,0.8
				C975.4,1122.3,972.1,1122,968.9,1121.7"/>
			<path id="ink-layer_00000135648850696285773090000009075337601926567095_" class="st3" d="M962.6,1246.3c0.1-3.3,0.1-6.6,0.2-9.8
				C962.7,1239.7,962.7,1243,962.6,1246.3"/>
			<path id="ink-layer_00000069389171546449429050000018117600290730616510_" class="st3" d="M1244.3,1115.2c3.3-0.3,6.6-0.6,9.8-1
				C1250.8,1114.6,1247.5,1114.9,1244.3,1115.2"/>
			<path id="ink-layer_00000031183254055394954690000013406199717085099455_" class="st3" d="M1469,1057c0.2-3.3,0.4-6.6,0.6-9.8
				C1469.4,1050.4,1469.2,1053.7,1469,1057"/>
			<path id="ink-layer_00000085968157311011175880000016737701851475834016_" class="st3" d="M1512.3,603.8c3.3-0.3,6.6-0.5,9.8-0.8
				C1518.8,603.3,1515.6,603.5,1512.3,603.8"/>
			<path id="ink-layer_00000030477042464875724010000009591327079069804942_" class="st3" d="M1177.9,1033.7c-2.5,0-4.9,0-7.4-0.1
				C1173,1033.6,1175.4,1033.6,1177.9,1033.7"/>
			<path id="ink-layer_00000075128933044783429100000001999629591254713990_" class="st3" d="M962.9,1430.6
				c-0.1-2.5-0.2-4.9-0.4-7.4C962.6,1425.7,962.8,1428.2,962.9,1430.6"/>
			<path id="ink-layer_00000022559748526544007900000017603800950803319697_" class="st3" d="M1238.6,1305.3c5.4,13.3,2.4,3.9,2.5,7
				C1236.5,1312.8,1235.7,1310.5,1238.6,1305.3"/>
			<path id="ink-layer_00000175308936522334499560000005821183291212382615_" class="st3" d="M1013.1,1021.5
				c-2.5-0.1-4.9-0.2-7.4-0.3C1008.2,1021.3,1010.7,1021.4,1013.1,1021.5"/>
			<path id="ink-layer_00000158719136510537942370000008720833685902956930_" class="st3" d="M1515.7,771.8c0.2-3.3,0.3-6.6,0.5-9.8
				C1516.1,765.3,1515.9,768.5,1515.7,771.8"/>
			<path id="ink-layer_00000080896221871541993780000014571080449340910751_" class="st3" d="M962.7,1406.1c0-3.3,0-6.6,0-9.8
				C962.7,1399.5,962.7,1402.8,962.7,1406.1"/>
			<path id="ink-layer_00000121999738478952975320000009558581723255211424_" class="st3" d="M962.4,1332.3c0.2-2.5,0.3-4.9,0.5-7.4
				C962.8,1327.4,962.6,1329.9,962.4,1332.3"/>
			<path id="ink-layer_00000111869446047015870550000004149065087213282238_" class="st3" d="M1473.8,1010.3
				c0.2-2.5,0.5-4.9,0.7-7.4C1474.3,1005.4,1474.1,1007.8,1473.8,1010.3"/>
			<path id="ink-layer_00000091710043151451633140000006994345617862647486_" class="st3" d="M930.4,1339.7c0.2,2.5,0.4,4.9,0.7,7.4
				C930.8,1344.6,930.6,1342.1,930.4,1339.7"/>
			<path id="ink-layer_00000111157480929302767220000002425762174484800935_" class="st3" d="M925.5,1320c0.2,2.5,0.5,4.9,0.7,7.4
				C925.9,1324.9,925.7,1322.5,925.5,1320"/>
			<path id="ink-layer_00000122720444550533975230000002822931341464706189_" class="st3" d="M1417.3,983.2c0.2-2.5,0.4-4.9,0.6-7.4
				C1417.7,978.3,1417.5,980.8,1417.3,983.2"/>
			<path id="ink-layer_00000068657195895542117650000011901611457181026489_" class="st3" d="M162.3,1316.7c3.3-0.3,6.6-0.5,9.8-0.8
				C168.9,1316.2,165.6,1316.5,162.3,1316.7"/>
			<path id="ink-layer_00000005268850461947243800000007797656177184484777_" class="st3" d="M1395.6,1376.6
				c-0.1,2.5-0.2,4.9-0.3,7.4C1395.4,1381.5,1395.5,1379,1395.6,1376.6"/>
			<path id="ink-layer_00000028322242481111451720000007829673020669843847_" class="st3" d="M1434.6,1383.9
				c0.2-2.5,0.4-4.9,0.5-7.4C1434.9,1379,1434.7,1381.5,1434.6,1383.9"/>
			<path id="ink-layer_00000175315339662023594370000010122037881808489605_" class="st3" d="M1419.7,973.4c0.3-2.5,0.5-4.9,0.8-7.4
				C1420.2,968.5,1419.9,970.9,1419.7,973.4"/>
			<path id="ink-layer_00000121265909724963026210000002050275477809199525_" class="st3" d="M182,1314.4c3.3-0.3,6.6-0.6,9.8-1
				C188.5,1313.7,185.3,1314,182,1314.4"/>
			<path id="ink-layer_00000021107401351865102220000012347042264857895861_" class="st3" d="M1224.6,1031.1c-1.6,0-3.3,0-4.9,0.1
				C1221.3,1031.2,1223,1031.2,1224.6,1031.1"/>
			<path id="ink-layer_00000057839415052166046750000003444117057637968535_" class="st3" d="M962.7,1310.2c0-2.5,0-4.9,0-7.4
				C962.7,1305.3,962.7,1307.7,962.7,1310.2"/>
			<path id="ink-layer_00000160896977669402992220000005854037051933258920_" class="st3" d="M1439.9,1305.3c-0.9-2.5-1.3-5,0.4-7.4
				C1440.2,1300.4,1440.1,1302.8,1439.9,1305.3"/>
			<path id="ink-layer_00000107586576121055630130000009270490576547174815_" class="st3" d="M1398,1258.6c-0.1,2.5-0.1,4.9-0.2,7.4
				C1397.9,1263.5,1398,1261,1398,1258.6"/>
			<path id="ink-layer_00000060721626458037831160000004327922472324857732_" class="st3" d="M1400.2,1501.9
				c0.2,2.5,0.3,4.9,0.5,7.4C1400.5,1506.8,1400.3,1504.4,1400.2,1501.9"/>
			<path id="ink-layer_00000006700313802614562690000003494646162763813793_" class="st3" d="M1581.1,607.8c2.5,0.4,4.9,0.7,7.4,1
				C1586.1,608.5,1583.6,608.2,1581.1,607.8"/>
			<path id="ink-layer_00000123409020343447491300000011883699035895111079_" class="st3" d="M1571.3,608c3.3,0.2,6.9-1.4,9.8,0.9
				L1571.3,608z"/>
			<path id="ink-layer_00000051369088565564334820000003295705617373028742_" class="st3" d="M1150.8,1127.1c3.3,0,6.6,0,9.8,0
				C1157.4,1127,1154.1,1127.1,1150.8,1127.1"/>
			<path id="ink-layer_00000022523961211028128740000012445614486756801932_" class="st3" d="M1224.6,605.4l9.8,0.9
				C1231.1,606,1227.9,605.7,1224.6,605.4"/>
			<path id="ink-layer_00000147916024532786026620000001956401549455643548_" class="st3" d="M1062.3,1126.4c3.3,0,6.6,0,9.8,0
				C1068.8,1128,1065.6,1128.2,1062.3,1126.4"/>
			<path id="ink-layer_00000080917111038390705550000004712578244795977628_" class="st3" d="M972.8,1538.8
				c-0.2-2.5-0.4-4.9-0.6-7.4C972.4,1533.9,972.6,1536.4,972.8,1538.8"/>
			<path id="ink-layer_00000010278783929128903330000015936304354813758883_" class="st3" d="M1331.5,609.6c0-2.5,0.1-4.9,0.1-7.4
				C1331.6,604.7,1331.5,607.1,1331.5,609.6"/>
			<path id="ink-layer_00000109749591008728801660000010018063696377564565_" class="st3" d="M1123.8,1127.4
				c3.3-0.3,6.6-0.5,9.8-0.8C1130.3,1126.9,1127,1127.2,1123.8,1127.4"/>
			<path id="ink-layer_00000168107416629604726020000000639000241407712654_" class="st3" d="M1402.8,1560.9
				c0.1,2.5,0.1,4.9,0.2,7.4C1402.9,1565.8,1402.8,1563.4,1402.8,1560.9"/>
			<path id="ink-layer_00000148642019073612281280000012287978184318308530_" class="st3" d="M1411.5,547.3c3.3-0.3,6.6-0.6,9.8-0.9
				C1418,546.7,1414.7,547,1411.5,547.3"/>
			<path id="ink-layer_00000176744145265519436670000009685303607184386199_" class="st3" d="M1454.2,1175c0.2-2.5,0.5-4.9,0.7-7.4
				C1454.6,1170.1,1454.4,1172.5,1454.2,1175"/>
			<path id="ink-layer_00000074438820602362548150000001046348077686022815_" class="st3" d="M1567.3,518.6c0.2-2.5,0.4-4.9,0.6-7.4
				C1567.7,513.7,1567.5,516.1,1567.3,518.6"/>
			<path id="ink-layer_00000012473064410192495370000017180842134085065131_" class="st3" d="M1333.9,307.2c0,2.5,0.1,4.9,0.1,7.4
				C1334,312.1,1334,309.6,1333.9,307.2"/>
			<path id="ink-layer_00000103975601292556498910000004521259724897987993_" class="st3" d="M1246.7,261.3c3.3,0.3,6.6,0.5,9.8,0.8
				C1253.3,261.8,1250,261.6,1246.7,261.3"/>
			<path id="ink-layer_00000178204196545283052390000010413902765561719426_" class="st3" d="M754.9,1658.5c3.3-0.3,6.6-0.6,9.8-1
				C761.5,1657.9,758.2,1658.2,754.9,1658.5"/>
			<path id="ink-layer_00000031915424099989413300000012021751121260338595_" class="st3" d="M1251.6,237.1c-1.6,0-3.3,0-4.9,0
				C1248.4,237.1,1250,237.1,1251.6,237.1"/>
			<path id="ink-layer_00000059989642586526228010000010679686716262522505_" class="st3" d="M646.7,1690.5c3.3-1.7,6.6-1.2,9.8,0
				C653.3,1690.5,650,1690.5,646.7,1690.5"/>
			<path id="ink-layer_00000002383805098798733770000008849894531299164077_" class="st3" d="M1922.9,1547.9
				c5.7-0.3,11.5-0.6,17.2-0.9C1934.4,1547.3,1928.7,1547.6,1922.9,1547.9"/>
			<path id="ink-layer_00000004544953126773441000000013676080817247512195_" class="st3" d="M1922.9,1505.5
				c-3.3,0.1-6.6,0.2-9.8,0.2C1916.4,1505.7,1919.7,1505.6,1922.9,1505.5"/>
			<path id="ink-layer_00000143589763918113993430000002918152852982556033_" class="st3" d="M1873.8,1456.8
				c4.1-0.3,8.2-0.6,12.3-0.9C1882.2,1458.2,1877.9,1456.4,1873.8,1456.8"/>
			<path id="ink-layer_00000018936850668857618740000015469386812643780749_" class="st3" d="M1827,1461.8c4.1-0.3,8.2-0.6,12.3-0.9
				C1835.2,1461.2,1831.1,1461.5,1827,1461.8"/>
			<path id="ink-layer_00000076570006483903753640000008174881243979257787_" class="st3" d="M1758.2,1506c3.3-0.3,6.6-0.5,9.8-0.8
				C1764.7,1505.5,1761.5,1505.8,1758.2,1506"/>
			<path id="ink-layer_00000173152422869068975860000001869589341190590370_" class="st3" d="M1775.4,1506c3.3-0.3,6.6-0.5,9.8-0.8
				C1782,1505.5,1778.7,1505.8,1775.4,1506"/>
			<path id="ink-layer_00000018199999128084037130000003365430547596097192_" class="st3" d="M1787.7,1503.6
				c3.3-0.3,6.6-0.6,9.8-0.9C1794.3,1503,1791,1503.3,1787.7,1503.6"/>
			<path id="ink-layer_00000151538051987606575060000006824832288714923695_" class="st3" d="M1804.9,1419.6c-2.5,0-4.9,0-7.4,0
				C1800,1419.6,1802.5,1419.6,1804.9,1419.6"/>
			<path id="ink-layer_00000025426034477973682160000001216411370720317314_" class="st3" d="M1866.4,1555c3.3-0.3,6.6-0.6,9.8-0.8
				C1873.2,1556.3,1869.7,1555.1,1866.4,1555"/>
			<path id="ink-layer_00000181070294483846345330000008123909253189131703_" class="st3" d="M1772.9,1358.6
				c3.3-0.3,6.6-0.6,9.8-0.9C1779.5,1358,1776.2,1358.3,1772.9,1358.6"/>
			<path id="ink-layer_00000087408614067805973080000005857300229590458512_" class="st3" d="M1760.6,1318.8c-2.5,0-4.9,0-7.4,0
				C1755.7,1318.8,1758.2,1318.8,1760.6,1318.8"/>
			<path id="ink-layer_00000092441277166424704410000017986179333525153410_" class="st3" d="M1736.1,1323.7c-1.6,0-3.3,0-4.9,0
				C1732.8,1323.7,1734.4,1323.7,1736.1,1323.7"/>
			<path id="ink-layer_00000088110767824605575970000009629214074082436792_" class="st3" d="M1677,1330.5c-0.8,2-5.2,1.8-4.9-0.3
				C1673.8,1330.3,1675.4,1330.4,1677,1330.5"/>
			<path id="ink-layer_00000038388467810801483720000016429313032764122271_" class="st3" d="M1562.5,1339.7
				c0.1,2.5,0.2,4.9,0.3,7.4C1562.7,1344.6,1562.6,1342.1,1562.5,1339.7"/>
			<path id="ink-layer_00000135659158684294200920000005545352644965935287_" class="st3" d="M1898.3,1352.7c2.5,0,4.9-0.1,7.4-0.1
				C1903.3,1354.3,1900.8,1354.1,1898.3,1352.7"/>
			<path id="ink-layer_00000014601389177848728440000009365250426023202720_" class="st3" d="M1804.9,1316.3c-1.6,0-3.3,0-4.9,0.1
				C1801.6,1316.3,1803.3,1316.3,1804.9,1316.3"/>
			<path id="ink-layer_00000051361554002255919250000011110663012618017163_" class="st3" d="M1741,1471.7c3.3-0.3,6.6-0.6,9.8-0.9
				C1747.5,1471.1,1744.3,1471.4,1741,1471.7"/>
			<path id="ink-layer_00000034087704818074307620000007727577226619128750_" class="st3" d="M1701.6,1476.6l9.8-0.9L1701.6,1476.6z
				"/>
			<path id="ink-layer_00000039098455419501405090000003448874480496275617_" class="st3" d="M1893.4,1550.3
				c3.3-0.3,6.6-0.6,9.8-0.9C1900,1549.7,1896.7,1550,1893.4,1550.3"/>
			<path id="ink-layer_00000163791075071499531830000010781262585235628473_" class="st3" d="M1775.4,1565.1c3.3-1.2,6.6-1.6,9.8,0
				C1782,1565.2,1778.7,1565.1,1775.4,1565.1"/>
			<path id="ink-layer_00000029025005755134010750000009704883704053284762_" class="st3" d="M1770.2,1226.3l-4.6-1.6
				c5.7-0.1,11.5-0.1,17.2-0.2C1782.8,1224.5,1770.8,1226.3,1770.2,1226.3"/>
			<path id="ink-layer_00000069394755633781542570000018240434825177679261_" class="st3" d="M1726.2,1183.6c-4.1,0-8.2,0-12.3,0
				C1718,1183.6,1722.1,1183.6,1726.2,1183.6"/>
			<path id="ink-layer_00000183955841753473695220000003701890636208392362_" class="st3" d="M1571.3,1277.6c4.1-1.6,8.2-1.3,12.3,0
				C1579.5,1277.5,1575.4,1277.5,1571.3,1277.6"/>
			<path id="ink-layer_00000167375098444040648160000011883250532669676177_" class="st3" d="M1819.7,1237.6c-2.5,0-4.9,0.1-7.4,0.1
				C1814.8,1237.7,1817.2,1237.7,1819.7,1237.6"/>
			<path id="ink-layer_00000023267984278887166630000003196459813609607849_" class="st3" d="M1768,1205.3c4.1,0.3,8.2,0.5,12.3,0.8
				C1776.2,1205.8,1772.1,1205.6,1768,1205.3"/>
			<path id="ink-layer_00000140737120263945449540000007837407942312525488_" class="st3" d="M1716.4,1230.7
				c4.1-0.3,8.2-0.6,12.3-0.9C1724.6,1230.1,1720.5,1230.4,1716.4,1230.7"/>
			<path id="ink-layer_00000042001352571790805140000018213787971151312293_" class="st3" d="M1748.3,1225.8
				c3.3-0.3,6.6-0.6,9.8-0.8C1754.9,1225.2,1751.6,1225.5,1748.3,1225.8"/>
			<path id="ink-layer_00000124134829099320940750000002968196123838847374_" class="st3" d="M1721.3,1202.8
				c3.3,0.3,6.6,0.5,9.8,0.8C1727.9,1203.4,1724.6,1203.1,1721.3,1202.8"/>
			<path id="ink-layer_00000170966446302950960440000001953195468107766442_" class="st3" d="M1674.6,1250c-1.6,0-3.3-0.1-4.9-0.1
				C1671.3,1249.9,1672.9,1250,1674.6,1250"/>
			<path id="ink-layer_00000062166896213734503260000006814518563878170764_" class="st3" d="M1726.2,1225.5
				c-1.6-0.1-3.3-0.2-4.9-0.3C1723,1225.3,1724.6,1225.4,1726.2,1225.5"/>
			<path id="ink-layer_00000132050633654507350970000007856473817845449121_" class="st3" d="M1694.3,1225.4c-1.6,0-3.3-0.1-4.9-0.1
				C1691,1225.4,1692.6,1225.4,1694.3,1225.4"/>
			<path id="ink-layer_00000114754046619595167750000013508631302583296141_" class="st3" d="M1782.8,1223.2c0,0.6,7.4-2.6,7.4,0.4
				L1782.8,1223.2z"/>
			<path id="ink-layer_00000104672633887769525640000006950324743645977774_" class="st3" d="M1755.7,1183.6c-1.6,0-3.3,0-4.9,0
				C1752.5,1183.6,1754.1,1183.6,1755.7,1183.6"/>
			<path id="ink-layer_00000031922199556446223070000010264924189771829421_" class="st3" d="M882.8,1067
				c2.7-10.9,1.9-19.4,11.4-12.4c5.2,3.8,13.8,23.1,13.1,29.7c-0.8,8.1-4.5,11.3-12.1,8.7C886.5,1090,883,1075.1,882.8,1067"/>
			<path id="ink-layer_00000071538447086516963370000002270201054183167664_" class="st3" d="M1361.9,1001c22,0,12.4,23.4-5.9,24
				c-8.4,0.2-20.6-1.4-17.8-12.7C1339.6,1006.3,1361,998.1,1361.9,1001"/>
			<path id="ink-layer_00000005971367781164660540000009256988562331085191_" class="st3" d="M1125.7,1047.1
				c15.9,7.7-6.5,41.5-20.9,33.1C1086.3,1069.5,1119.1,1052,1125.7,1047.1"/>
			<path id="ink-layer_00000035513854330397077780000011163343995670706071_" class="st3" d="M1087,1079.1
				c5.2,5.7,28.7,24.9,15.7,32.6C1086.8,1121.3,1074.7,1089.9,1087,1079.1"/>
			<path id="ink-layer_00000096056106493852961790000003893921068228688272_" class="st3" d="M820.5,1064.4
				c-5.2-10,1.9-36.2,17.7-31.4C854.1,1037.8,829.3,1061.7,820.5,1064.4"/>
			<path id="ink-layer_00000150791742854076507570000003257225528336839297_" class="st3" d="M1171.3,1070.1
				c10.3-4.1,8.3,8.1,9.9,12.1c1.8,4.5,10.8,15.5,8.6,20.2c-3.4,7.1-11.5,2.6-15.8-2C1166.3,1092.3,1166.8,1079.3,1171.3,1070.1"/>
			<path id="ink-layer_00000139272523685907197810000007616522613678752663_" class="st3" d="M1014.2,1081.5
				c-8.6,0-29.1-24.8-17.1-28.9C1012.1,1047.4,1024.6,1083.3,1014.2,1081.5"/>
			<path id="ink-layer_00000165924954402784923410000006242985730934074028_" class="st3" d="M1311.2,1042.2
				c7.9,1.9,18.3,24.2,6.4,26.8C1304.5,1071.9,1302.1,1048.4,1311.2,1042.2"/>
			<path id="ink-layer_00000007393832066285236450000017586129265418154371_" class="st3" d="M1263.4,1084
				c-6.2-11.9-7.7-37.3,7.4-16.9c3.3,4.4,6.6,2.6,5,9.9C1274.3,1083.4,1268.5,1084,1263.4,1084"/>
			<path id="ink-layer_00000060721304210183456910000014377414340997477535_" class="st3" d="M938.3,1022.6
				c6.3,9.5,4.4,39.2-8.7,21.6C924,1036.7,927.9,1022.9,938.3,1022.6"/>
			<path id="ink-layer_00000150790998882728934560000005673102759316068240_" class="st3" d="M1254.6,130.4
				c12.2-3.2,15.1,25.6,8,28.8C1252.6,163.7,1253.9,135.2,1254.6,130.4"/>
			<path id="ink-layer_00000129187249555012263280000001952964352309914797_" class="st3" d="M2026.6,1592
				c-11.3-0.7-27.2-3.8-10-11.8c10.9-5.1,27.1-5.4,38.6-3.4c7.9,1.4,19.8,8,7.7,16.5C2055.8,1598.4,2035.2,1592.3,2026.6,1592"/>
			<path id="ink-layer_00000153690614297699132370000005267869100876481961_" class="st3" d="M2013.9,1612.6
				c-3.3-0.4-6.5-0.7-9.8-1.1C2006.7,1606.7,2014.3,1605.7,2013.9,1612.6"/>
			<path id="ink-layer_00000076571260419230879920000014314115033728585623_" class="st3" d="M2028.7,1591.6
				c3.3,0.1,6.6,0.1,9.8,0.2C2035.2,1591.7,2031.9,1591.6,2028.7,1591.6"/>
		</g>
	</g>
</g>
</svg>
